/* XPM */
static char *result[] = {
/* columns rows colors chars-per-pixel */
"50 50 122 2 ",
"   c #00021F",
".  c #000224",
"X  c #00032C",
"o  c #000533",
"O  c #010A35",
"+  c #000739",
"@  c #000B3B",
"#  c #041136",
"$  c #03123D",
"%  c #000E41",
"&  c #011244",
"*  c #081740",
"=  c #071C47",
"-  c #0B1A46",
";  c #01164A",
":  c #021A4D",
">  c #011D52",
",  c #0B204B",
"<  c #012156",
"1  c #092255",
"2  c #02255A",
"3  c #0B275A",
"4  c #03295E",
"5  c #0A2B5D",
"6  c #032C63",
"7  c #0B2E63",
"8  c #033067",
"9  c #0D3266",
"0  c #04346B",
"q  c #0A356C",
"w  c #06386F",
"e  c #0B386F",
"r  c #143463",
"t  c #193A65",
"y  c #163568",
"u  c #133B6D",
"i  c #053B73",
"p  c #0B3C74",
"a  c #073F78",
"s  c #0A3F78",
"d  c #133C72",
"f  c #07417A",
"g  c #0B437C",
"h  c #144074",
"j  c #1C4577",
"k  c #13447C",
"l  c #194779",
"z  c #19487C",
"x  c #0D4780",
"c  c #0E4A84",
"v  c #0F4E88",
"b  c #124780",
"n  c #134C85",
"m  c #1A4D84",
"M  c #124F88",
"N  c #1D5287",
"B  c #14528C",
"V  c #1A538B",
"C  c #165691",
"Z  c #195691",
"A  c #1C5A95",
"S  c #1E5E99",
"D  c #235486",
"F  c #23558C",
"G  c #28588E",
"H  c #205790",
"J  c #225B94",
"K  c #2A5E94",
"L  c #215F99",
"P  c #1F609B",
"I  c #2C6196",
"U  c #23629D",
"Y  c #2A649C",
"T  c #30679E",
"R  c #2666A1",
"E  c #2867A1",
"W  c #2768A3",
"Q  c #2B6AA5",
"!  c #2E6EA9",
"~  c #316DA5",
"^  c #306FA9",
"/  c #2F70AB",
"(  c #3372AD",
")  c #3975AD",
"_  c #3C78AF",
"`  c #3676B1",
"'  c #3877B2",
"]  c #3B7AB5",
"[  c #3E7EB8",
"{  c #427EB6",
"}  c #407FB9",
"|  c #3F80B9",
" . c #4381B6",
".. c #4483BC",
"X. c #4987BF",
"o. c #4B89BF",
"O. c #4786C0",
"+. c #4887C0",
"@. c #4C8AC3",
"#. c #518EC6",
"$. c #518FC8",
"%. c #5592CA",
"&. c #5996CD",
"*. c #5C98CE",
"=. c #5E9AD1",
"-. c #649EC7",
";. c #609CCF",
":. c #629DD3",
">. c #67A1CE",
",. c #66A1D6",
"<. c #69A4D6",
"1. c #6BA6DA",
"2. c #6EA9DB",
"3. c #71ABDD",
"4. c #78B2DF",
"5. c #76AFE0",
"6. c #77B0E1",
"7. c #7BB4E2",
"8. c #83BBE5",
"9. c #89C0E8",
"0. c #91C8E9",
"q. c None",
/* pixels */
"q.q.q.q.q.q.q.q.q.q.q.q.q.q.q.q.q.q.q.q.K ( *.,.&.=.,.4.7.4.q.q.q.q.q.q.q.q.q.q.q.q.q.q.q.q.q.q.q.q.",
"q.q.q.q.q.q.q.q.q.q.q.q.q.q.q.q.b 0 i x M 6 p B B V ( ( [ X.&.,.4.8.q.q.q.q.q.q.q.q.q.q.q.q.q.q.q.q.",
"q.q.q.q.q.q.q.q.q.q.q.q.q.q.d < 2 8 6 6 Y ' ] @.} ] ' Q A v U ' *.3.8.8.q.q.q.q.q.q.q.q.q.q.q.q.q.q.",
"q.q.q.q.q.q.q.q.q.q.q.q.5 > 6 2 2 6 > R L W { i V U ! E J V g n Q @.1.3.3.7.q.q.q.q.q.q.q.q.q.q.q.q.",
"q.q.q.q.q.q.q.q.q.q.q.2 & & 2 > 8 6 B g J b 6 2 w 6 8 b 6 ~ ^ ' V f Q } O.%.&.q.q.q.q.q.q.q.q.q.q.q.",
"q.q.q.q.q.q.q.q.q.p q & % 2 6 6 8 6 6 6 < 6 6 & > ; > 0 8 D N K Q ^ B Q ! @. .@.:.q.q.q.q.q.q.q.q.q.",
"q.q.q.q.q.q.q.q.k = ; + 2 6 n g 8 0 6 6 8 6 > ; ; 2 2 6 0 w a n ) @.U A S R ` ] [ :.q.q.q.q.q.q.q.q.",
"q.q.q.q.q.q.q.< & + + > p -.x n 8 6 i 6 2 : < ; > 6 2 0 6 8 w f ( ] ( W C M c U X.@.:.q.q.q.q.q.q.q.",
"q.q.q.q.q.q.p & . X % > 8 w 0 8 6 2 2 > 6 2 > > : 6 6 0 8 i a M ] { ' U U ' B g g ) ,.,.q.q.q.q.q.q.",
"q.q.q.q.q.J : @ + + & & > 6 6 i 2 2 2 ; w 6 6 > 2 6 6 6 6 i C M C ^ ' Q W R Z n f b @.%.@.q.q.q.q.q.",
"q.q.q.q.q.g @ + X + % & 2 0 4 : > a n > 6 6 > 6 2 6 6 6 2 i c x V A ..] ' ^ Q U V J ] #...q.q.q.q.q.",
"q.q.q.q.) e @ + o @ ; ; 6 0 4 : 8 2 8 a 2 6 4 2 w i e p i x c n x ( ) ` ] Q U B c ` ' ' ) ] q.q.q.q.",
"q.q.q.] ( & ; % + + + 2 g i < n L J x 0 2 6 i 6 8 6 Z A M c S M M Y 4 > m W i n ^ V ) ` ( } ( q.q.q.",
"q.q.q.` J O X % + % 6 x U n : p L A W M g i 6 0 6 2 p Z M e V V 8 6 ; 6 6 k p f x Z A U ..M } q.q.q.",
"q.q.( ) & X . + & + 6 B ) s 6 g R R L ! Z A s i a > 2 V E K L b 6 6 2 2 > 2 0 6 k f V W ! A ! ! q.q.",
"q.q.T A O X X X + X 0 d i i e 8 S ` %.( A R n s V E J A ! ! A 9 ; > & 2 : 6 > 7 N q n R ' L A ^ q.q.",
"q.W 3 B . . $ X . o > 9 6 p a n L x } R B A v f 6 M M M h k e * & @ > > 6 2 : q ^ d n ^ R Q ! L ) q.",
"q.! t n O X : X . ; + > ; 0 8 x C a 0 a 8 c f 4 ; O 8 & ; 8 4 : * & @ 6 2 % % % C Q ` } ( ! ` ` ..q.",
"q.Q U c $ . # o @ O o > & > 0 w L p 0 $ 4 q < > $ # 4 : : $ 2 , 9 + < > % % ; ; L [ ' ' O.` ' ^ ( q.",
"q.) ( B @ & & O @ - % ; : d e e 8 Y 6 8 8 ;   & i g x < @ O u 0 : y : & % ; % 8 A @.` ] O.^ [ ' U q.",
"! U Q S d & # o : o & & k > = > 2 c 6 > 5 2 $ 6 C x Y q ; . > < e k e $ @ @ $ d J R ' E +.' } ^ Q ! ",
"R h S A e 6 0 4 * + ; i A > > b x x i 6 6 6 e : 0 n s B 8 4 5 w N 3 : o 5 > : V n 0 ^ L Y ' L ` W ) ",
"Q ` U Z p q c V : @ O 4 & + 1 6 v c e n b n M 8 4 0 B P B B x B e & o X o @ + 6 > w [ L L K ! ' ) | ",
"! ..! B Z A B b 1 & + 6 1 % > > L n 2 A ^ ! A s w B W U Q | B B e X X X % + @ & > & m ` ! J d V Y [ ",
"Q =.[ B B ) : V , & $ 4 p 5 ; > x 1 > g R P / C n A U ) ` [ B s 4 @ + ; + $ o X & * A $.[ 6 0 6 F ( ",
"/ ,.] ] Q 2 + o # - 4 z L % 9 e A 4 : p P ! / R W U ( W / S A k 3 @ % + o + o o o , A ^ ( 2 2 : l ` ",
"U ( R [ N 5 & X @ Z 2 M 4 < 2 > 2 & 4 B ( v A P U Q ! U U W Q M 6 % % & + & + X - @ k  .J > ; % u ^ ",
"U P R @.U $ & o X e 7 a U > 2 2 2 > k > U W C P U ( @.( W / Y U A 2 > @ % ; & & + z b ( L : ; @ N U ",
"U Q ! O.{ V X $ 7 7 > x i 2 ; + & @ 2 m / U C A B / ( / ( U ` ] R S 4 > & d > : : 4 2 Q Q & : j ~ Z ",
"U S H Q #.K 8 e b s > e 6 & d % > > ^ S ! ! A ` Q P U ( U / @.( K A > ; J ! = & 4 p N k Q J Z ( ^ s ",
"q.R } ! U k Z Z K & q d 6 % + @ @ n U ! ] R  .U P / R W &.] [ B c 0 p M A L V 7 9 6 > & Q U h m L q.",
"q.W Q A J i V W d 7 V L i 7 > ; : i W ] A R ! / `  .W / / ( | Q n a i S A C n 2 > < % O L J m r U q.",
"q.Q R c U E L V ^ H a ( ] U q m e R ' P ` ! ' C S R ! R S ! O.` ! a v R ( A n > > ; ; + % x u G W q.",
"q.! R 6 P Q ! / Q ^ ] ( :.( [ ..O.$.O.@.=.( S Q ! Q R S ] ` O.' R S i x ! W w > > : ; ; e 7 F H A q.",
"q.q.R L b B ! [ ] H +.[ &.,.@.&.1.*.} &.&.( +.[ ` ` Q R R R O.$.S f 6 8 L ^ b > > % > 0 p d m C q.q.",
"q.q...A W c U ( ! ` ..%.%.:.2.5.7.0.2.%.$.@.@.&.O.( S A P W ] ] v i 0 a L ! d ; & 6 6 > n C M 2 q.q.",
"q.q.q.B W M M R ` ! ..+.*.&.,.1.5.2.$.=.%.+.' ! P W Z L L ] ] | S 6 2 N ` Y m 6 2 w B Q M v M q.q.q.",
"q.q.q.Q W A Z R ' ' O.%.:.<.%.,.2.:.:.$.O.O.O.^ ` ! ..^ *.$.[ Q x q > Q q E A m 8 i ! C x x 7 q.q.q.",
"q.q.q.q.` [ c ' ` ` ....,.%.@.:.5.1.5.:...:.+.$.$.+.' ! ' ] ] / R ] M C k m b e 6 B n B B n q.q.q.q.",
"q.q.q.q.q.] @.` ' ] $.:.2.2.,.<.:.<.:.$.+.] ' ` ` ` +.+.] [ O.' ` A E L x s 8 s B a B v c q.q.q.q.q.",
"q.q.q.q.q.@.%.@.' [ $.O.2.2.=.7.2.2.:.:.O.$.+.+.( ! [ [ ` ! / ( ( ] ' ..Q B U / n c a V B q.q.q.q.q.",
"q.q.q.q.q.q.....O.O.O.&.5.=.,.1.*.5.&.+.] X.+.} ..` ` / ` ` | [ [ ( @.@...W ! C B M C J q.q.q.q.q.q.",
"q.q.q.q.q.q.q.&.%.O.&.$.,.,.2.$.<.,.+.=.O.] ` O.' Q ` [ [ [ [ ..! [ %.*.#.} ) A v A Z q.q.q.q.q.q.q.",
"q.q.q.q.q.q.q.q.1.$.#.=.5.6.&.&.=.@.+.[ +.+.' ' ] Q ' O...[ ` ` @.&.,.:.@.] ( U C V q.q.q.q.q.q.q.q.",
"q.q.q.q.q.q.q.q.q...=.@.1.2.=.%.$.:.+.O.@.O.] ] [ O.[ O. .O.O...&.&.,.:. ...A B U q.q.q.q.q.q.q.q.q.",
"q.q.q.q.q.q.q.q.q.q.q.%.,.=.=.=.$.=.$.$.O.+.O.O.' ] @.&.%.@...( ! @.! Q ( Y B q.q.q.q.q.q.q.q.q.q.q.",
"q.q.q.q.q.q.q.q.q.q.q.q.@.,.1.:.:.:.O.@.O.O.O.$.| | [ / Q / ! R Q Q Q Y E 5 q.q.q.q.q.q.q.q.q.q.q.q.",
"q.q.q.q.q.q.q.q.q.q.q.q.q.q.=.7.,.,.*.$.+.[ [ ] ' ' R ! ..` / E W V b e q.q.q.q.q.q.q.q.q.q.q.q.q.q.",
"q.q.q.q.q.q.q.q.q.q.q.q.q.q.q.q.>.&.#.&.@.@.%.[ ( ` ' Q V m l 9 e u q.q.q.q.q.q.q.q.q.q.q.q.q.q.q.q.",
"q.q.q.q.q.q.q.q.q.q.q.q.q.q.q.q.q.q.q.q. .~ ) Q Q Y ] D u 5 q.q.q.q.q.q.q.q.q.q.q.q.q.q.q.q.q.q.q.q."
};
