/* XPM */
static char *result[] = {
/* columns rows colors chars-per-pixel */
"50 50 189 2 ",
"   c #070707",
".  c #070808",
"X  c #0B0B0B",
"o  c #070708",
"O  c #0F0F10",
"+  c #100F10",
"@  c #0F1010",
"#  c #131313",
"$  c #191817",
"%  c #171718",
"&  c #1B1B1B",
"*  c #201F1F",
"=  c #21211F",
"-  c #1D1F21",
";  c #1F2020",
":  c #242424",
">  c #292925",
",  c #262729",
"<  c #2B2B2B",
"1  c #272A2D",
"2  c #302F2F",
"3  c #2F302C",
"4  c #33332D",
"5  c #2F2F31",
"6  c #333334",
"7  c #3A3A35",
"8  c #383738",
"9  c #37383A",
"0  c #3B3C3C",
"q  c #373738",
"w  c #444439",
"e  c #48493E",
"r  c #3E3F40",
"t  c #444344",
"y  c #494945",
"u  c #464649",
"i  c #4C4C4C",
"p  c #484849",
"a  c #54534D",
"s  c #565649",
"d  c #4E4E50",
"f  c #504F51",
"g  c #4F5052",
"h  c #535353",
"j  c #565658",
"k  c #57585B",
"l  c #5B5B5C",
"z  c #58575A",
"x  c #605F5E",
"c  c #616153",
"v  c #6E6E5C",
"b  c #5C5D62",
"n  c #605F61",
"m  c #636364",
"M  c #696767",
"N  c #696867",
"B  c #656669",
"V  c #67686B",
"C  c #6C6B6C",
"Z  c #68676A",
"A  c #716F6F",
"S  c #72726C",
"D  c #7C7C6C",
"F  c #7B7B65",
"G  c #6F6F71",
"H  c #706F70",
"J  c #6F7073",
"K  c #737374",
"L  c #757578",
"P  c #7B7A7B",
"I  c #78787B",
"U  c #828269",
"Y  c #8A8B78",
"T  c #9D9E7F",
"R  c #96957B",
"E  c #7E7E80",
"W  c #807F83",
"Q  c #848384",
"!  c #888686",
"~  c #8B8B83",
"^  c #86868A",
"/  c #87898E",
"(  c #8B8B8C",
")  c #88878A",
"_  c #908E8F",
"`  c #92928D",
"'  c #9B9C8D",
"]  c #8C8E92",
"[  c #908F91",
"{  c #8F9194",
"}  c #8B929C",
"|  c #939393",
" . c #999695",
".. c #999A96",
"X. c #94959A",
"o. c #96999D",
"O. c #9C9B9B",
"+. c #979897",
"@. c #A09F9F",
"#. c #9FA099",
"$. c #A6A68B",
"%. c #B2B38E",
"&. c #A3A19C",
"*. c #AAAA99",
"=. c #BBBB98",
"-. c #9C9EA2",
";. c #989EA8",
":. c #9FA1A6",
">. c #9CA2AC",
",. c #A4A3A3",
"<. c #ABAAA3",
"1. c #A4A6AA",
"2. c #ACABAC",
"3. c #A8A7A7",
"4. c #B1AFAF",
"5. c #B3B3A5",
"6. c #BCBCA6",
"7. c #B5B5AA",
"8. c #BABAAE",
"9. c #ACAEB2",
"0. c #A5AAB3",
"q. c #AFB1B5",
"w. c #AFB5BE",
"e. c #B3B3B5",
"r. c #B8B7B5",
"t. c #BCBCB3",
"y. c #B3B6BB",
"u. c #B7B8BD",
"i. c #BBBBBC",
"p. c #C1BFB9",
"a. c #BFC0A8",
"s. c #C4C4A9",
"d. c #CACAAD",
"f. c #CBCBA3",
"g. c #D2D2AD",
"h. c #C2C2B2",
"j. c #CBCAB4",
"k. c #C3C2B9",
"l. c #CCCDBE",
"z. c #D5D4BB",
"x. c #DADABD",
"c. c #DCDDB5",
"v. c #E2E3BD",
"b. c #A9B5C9",
"n. c #ABB5C6",
"m. c #B5BAC2",
"M. c #BBBEC1",
"N. c #B4BDCB",
"B. c #B9BFC8",
"V. c #C0BFC0",
"C. c #BFC1C4",
"Z. c #BDC3CC",
"A. c #BCC4D1",
"S. c #C3C3C4",
"D. c #C4C6CB",
"F. c #C6C8CB",
"G. c #CACACC",
"H. c #CCCBC3",
"J. c #D1CFCD",
"K. c #D8D7C5",
"L. c #C4CAD3",
"P. c #CBCED2",
"I. c #C4CBD6",
"U. c #CED0D5",
"Y. c #CCD2DA",
"T. c #D3D4D5",
"R. c #DAD9D7",
"E. c #D4D6DA",
"W. c #D6D8DC",
"Q. c #DBDBDC",
"!. c #D8D7D6",
"~. c #E0DFDF",
"^. c #E4E4C3",
"/. c #EBEBCB",
"(. c #E6E6C7",
"). c #EEF0C9",
"_. c #F2F2CC",
"`. c #F0F0C7",
"'. c #E2E1DF",
"]. c #DCDEE1",
"[. c #D6DAE0",
"{. c #DFE0E2",
"}. c #E3E3E4",
"|. c #E6E7E8",
" X c #E7E8E9",
".X c #EBEBEB",
"XX c #E8E8E7",
"oX c #F6F5F2",
"OX c None",
/* pixels */
"OXOXOXOXOXOXOXOXOXOXOXOXOXOXOXOXOXOXOXOXOXOXOXOXOXOXOXOXOXOXOXOXOXOXOXOXOXOXOXOXOXOXOXOXOXOXOXOXOXOX",
"OXOXOXOXOXOXOXOXOXOXOXOXOXOXOXOXOXOXOXOXOXOXOXOXOXOXOXOXOXOXOXOXOXOXOXOXOXOXOXOXOXOXOXOXOXOXOXOXOXOX",
"OXOXOXOXOXOXOXOXOXOXOXOXOXOXOXOXOXOXOXOXOX`.^.^.^.^.x.v.OXOXOXOXOXOXOXOXOXOXOXOXOXOXOXOXOXOXOXOXOXOX",
"OXOXOXOXOXOXOXOXOXOXOXOXOXOXOXOXOX^.x.j.h.8.k.k.k.t.8.7.6.s.d.c.OXOXOXOXOXOXOXOXOXOXOXOXOXOXOXOXOXOX",
"OXOXOXOXOXOXOXOXOXOXOXOXOXOX`.^.j.7.&.#.O.,.2.2.q.2.,.| { ` ` ' *.f.OXOXOXOXOXOXOXOXOXOXOXOXOXOXOXOX",
"OXOXOXOXOXOXOXOXOXOXOXOXOXx.p.<...| O.r.S.F.M.1.:.:.:.o.o.( Y P S D R =.OXOXOXOXOXOXOXOXOXOXOXOXOXOX",
"OXOXOXOXOXOXOXOXOXOXOX^.j.<.@.| ) X.q.C.S.i.y.m.m.i.2.:.o.( W I m a a v T f.OXOXOXOXOXOXOXOXOXOXOXOX",
"OXOXOXOXOXOXOXOXOXOXx.8...( | O.,.S.S.F.W.W.I.U.R.U.F.y./ K I C m i y y s F %.OXOXOXOXOXOXOXOXOXOXOX",
"OXOXOXOXOXOXOXOXOXz.<.( ) ! ) @.4.U.}..X|..X}.}.}.W.I.F.o.L V B z i h i 7 7 c $.OXOXOXOXOXOXOXOXOXOX",
"OXOXOXOXOXOXOXOXK.*.! ( | [ 3.p.T.P.}.|.|.|.}.|.}.E.Z.m.:.^ E V z j h i 8 2 4 s R OXOXOXOXOXOXOXOXOX",
"OXOXOXOXOXOXOX^.5. .! _  .r.~.|.].}..X X|.|..X|.E.Y.w.1.,.| ^ Q M j f z t 2 > 2 s U OXOXOXOXOXOXOXOX",
"OXOXOXOXOXOX/.k.@. .( _ 3.r.P.[.Y.W.}.].|.|..X.X{.W.].R.u.,./ I A m x x i 8 > , < w OXOXOXOXOXOXOXOX",
"OXOXOXOXOX_.H.t.@.Q X.-.,.9.0.L.].].}.}.|..X.X.X{.].}.~.F.&.( L K C Z h y 0 2 : : 3 w OXOXOXOXOXOXOX",
"OXOXOXOXOXK.7.4._ W ] X.;.L.Y.[.}..X}.].T.Y.{.}.T.R.J.t.&.Q ( ( I n x f t 0 6 : : > > w OXOXOXOXOXOX",
"OXOXOXOX/.t.,.,.) W _ X.0.].[.|..X XT.I.A.L.E.}.T.M.,.O.( Q _ ! L z i i 0 6 q < : = = : OXOXOXOXOXOX",
"OXOXOXOXz.O.<.,.[ [  .) q.].|..XoX{.m.n.A.I.L.P.Q.!.e.,.| ! P I Z z f y r 0 6 2 > = # $ > OXOXOXOXOX",
"OXOXOX_.5. .3. .2.r.q.,.m.V.[.}.].[.L.N.D.[.L.m.V.S.3.@.@.[ ! I m m z d r 6 5 , - % O # & OXOXOXOXOX",
"OXOXOX^.@.| [ @.V.T.D.E.U.P.L.V.N.Y.].}.|.~.Y.V.e.-.[ [ O.X.W J Z C n d r 5 5 ; & % O X # & OXOXOXOX",
"OXOXOXl...! ^ 9.J.R.U.~.U.V.B.b.b.Y..X X|.XX~.].D.,.[ ) | [ ^ C A A n t 5 ; - - % # O X # # OXOXOXOX",
"OXOX`.8.| P X.M.E.{.{.E.P.L.I.Y.I.]..X.X.X{.].U.4.o.{ / ] ) P K K B j r 5 , - % % O X O @ # OXOXOXOX",
"OXOX^.7.) I ,.P.[.W.].Y.P.~.}..X.X X}.}.I.A.D.q.,.| X.[ / ( P P V k u 0 6 6 < ; % O O X X @ OXOXOXOX",
"OXOXK.3.E [ 1.M.E.U.L.D.F.}..X.X.X].W.P.N.N.u.9.O./ | [ _ Q W P b i r 9 < < : ; % # # O X O OXOXOXOX",
"OXOXz.&.! ] V.G.].Q.T.T.T.}..X.X|.[.L.L.Y.y.0.2.o.) | o.( ! Q A f u t 6 < : & % # # X X O X @ OXOXOX",
"OXOXd...,.,.B.U.~.~.R.~.~.}..X.X.X].P.Z.P.D.r.4.[ ] [ O.) P C x h p t 9 > = # # O O X X X X X OXOXOX",
"OXOXs.O.y.F.G.U.E.T.E.E.R.Q.}.|.XX}.[.V.G.E.H.4.| | ( | W L b b l p 0 < : & # @ @ X X X X X X OXOXOX",
"OXOXs...} y.F.C.m.V.V.P.J.~.T.L.Y.W.W.V.B.V.H.e.@.@.( E I B m m j t 2 : & # # O X X X + X + X OXOXOX",
"OXOXd.&.2.S.a.m.e.9.y.M.V.T.T.G.L.E.T.D.M.u.u.r.3.,.[ Q K j x h t 0 > : & $ # O X X X X X + X OXOXOX",
"OXOXg.3.1.u.u.w.e.9.y.V.U.~.!.!.~.R.~.T.G.p.p.e.,.O.| ! K m l p 9 6 < ; & % # O @ @ X X X X X OXOXOX",
"OXOXc.<.:.1.1.e.e.r.q.M.J.Y.J.T.T.G.V.P.S.p.M.4.O.+._ E C m h t 6 6 : : $ % @ X X O X X X X OXOXOXOX",
"OXOXv.5.+.o.o.2.2.4.9.1.y.V.V.F.V.V.V.J.G.V.e.3.O.| ! K l l d r q 5 : - % # @ O X X X X X X OXOXOXOX",
"OXOXOX5.~ ^ { #.@.@.2.1.1.q.V.V.V.q.r.p.p.u.2.2.O._ L B l g t 9 6 < : & % # # O X X X @ X X OXOXOXOX",
"OXOXOXa.Q L E ( [ O.,.3.@.-.9.r.9.;.-.-.,.,.&...( P C V l d 9 5 < , & $ # # @ X X X X X X X OXOXOXOX",
"OXOXOXg.Y C N J E Q _ #.,.O.1.3.-.X.{ / / { ` ~ P m h x f p 6 < , = & $ # # X X + X . X X OXOXOXOXOX",
"OXOXOXOX' S x l N C C L Q ^ | | ( ) ( ( Q P P L A i r y u 0 < : - & $ # # X X + X X X X X OXOXOXOXOX",
"OXOXOXOX=.D l g l l l m l N P P K K P P P S M m f t 8 6 6 6 , - & % # + + X X X X X . X OXOXOXOXOXOX",
"OXOXOXOXOXY h y i g i a j C K J m m C N m x z i 0 8 6 < , * & $ % # + O + X X X X X X X OXOXOXOXOXOX",
"OXOXOXOXOX$.c y 0 r r t g m m m j j l h i p u 0 4 > : ; & $ # + + O X + + X X X . X X OXOXOXOXOXOXOX",
"OXOXOXOXOXOXU y 6 5 6 6 t a g i u p p u t 0 8 2 , : - & % # + O X X X X X o .   . X X OXOXOXOXOXOXOX",
"OXOXOXOXOXOXOXc 7 > , > 5 9 9 0 0 0 6 6 6 6 < : = * & % # + X + X X o X X X     X X OXOXOXOXOXOXOXOX",
"OXOXOXOXOXOXOXOXe < : : : < < 6 6 6 < : : > ; & & $ % # + O X X X o X o           OXOXOXOXOXOXOXOXOX",
"OXOXOXOXOXOXOXOXOX4 = & & : > > < , : : ; & $ % # # # + X X X . X   X         X OXOXOXOXOXOXOXOXOXOX",
"OXOXOXOXOXOXOXOXOXOX> $ $ $ - - ; - & & $ # # # # + X X X X X           X o   OXOXOXOXOXOXOXOXOXOXOX",
"OXOXOXOXOXOXOXOXOXOXOX$ # $ $ $ $ $ $ # # @ O # # X X X o X X X       X   X OXOXOXOXOXOXOXOXOXOXOXOX",
"OXOXOXOXOXOXOXOXOXOXOXOX# + + # # # # # + + X X X X X X     o .     . .   OXOXOXOXOXOXOXOXOXOXOXOXOX",
"OXOXOXOXOXOXOXOXOXOXOXOXOXOXX O # # # # X X X X X X X X . .   . o . X OXOXOXOXOXOXOXOXOXOXOXOXOXOXOX",
"OXOXOXOXOXOXOXOXOXOXOXOXOXOXOXOXX + X X X X X X X       X . o . X OXOXOXOXOXOXOXOXOXOXOXOXOXOXOXOXOX",
"OXOXOXOXOXOXOXOXOXOXOXOXOXOXOXOXOXOXOXOXX O X X X .   X X OXOXOXOXOXOXOXOXOXOXOXOXOXOXOXOXOXOXOXOXOX",
"OXOXOXOXOXOXOXOXOXOXOXOXOXOXOXOXOXOXOXOXOXOXOXOXOXOXOXOXOXOXOXOXOXOXOXOXOXOXOXOXOXOXOXOXOXOXOXOXOXOX",
"OXOXOXOXOXOXOXOXOXOXOXOXOXOXOXOXOXOXOXOXOXOXOXOXOXOXOXOXOXOXOXOXOXOXOXOXOXOXOXOXOXOXOXOXOXOXOXOXOXOX",
"OXOXOXOXOXOXOXOXOXOXOXOXOXOXOXOXOXOXOXOXOXOXOXOXOXOXOXOXOXOXOXOXOXOXOXOXOXOXOXOXOXOXOXOXOXOXOXOXOXOX"
};
