/* XPM */
static char *result[] = {
/* columns rows colors chars-per-pixel */
"50 50 193 2 ",
"   c #3D0303",
".  c #490705",
"X  c #5D0303",
"o  c #510A04",
"O  c #5B1205",
"+  c #640404",
"@  c #6D0403",
"#  c #620805",
"$  c #6A0D05",
"%  c #740403",
"&  c #7D0604",
"*  c #7C0905",
"=  c #771106",
"-  c #7D1406",
";  c #712009",
":  c #810404",
">  c #8C0604",
",  c #8C0C05",
"<  c #860B04",
"1  c #930403",
"2  c #9B0303",
"3  c #940904",
"4  c #9D0A05",
"5  c #841305",
"6  c #8E1805",
"7  c #8E1406",
"8  c #931306",
"9  c #9D1A06",
"0  c #951706",
"q  c #A40604",
"w  c #AC0503",
"e  c #A30C04",
"r  c #AC0C05",
"t  c #B20D04",
"y  c #BA0D04",
"u  c #A21405",
"i  c #AC1405",
"p  c #A31B06",
"a  c #AC1B05",
"s  c #A11C08",
"d  c #B41405",
"f  c #BD1305",
"g  c #B41B05",
"h  c #BC1D05",
"j  c #872206",
"k  c #862508",
"l  c #8B2109",
"z  c #9F2709",
"x  c #992A08",
"c  c #9E2306",
"v  c #98340F",
"b  c #933D15",
"n  c #AA2207",
"m  c #A82508",
"M  c #A42C0A",
"N  c #AE2A08",
"B  c #A92907",
"V  c #B42204",
"C  c #BD2306",
"Z  c #BD2B06",
"A  c #B42708",
"S  c #B32D0A",
"D  c #AF3407",
"F  c #BB320A",
"G  c #B33308",
"H  c #C10F04",
"J  c #C31505",
"K  c #C31B05",
"L  c #CA1E04",
"P  c #C42305",
"I  c #CC2305",
"U  c #C52C06",
"Y  c #CB2B05",
"T  c #C02708",
"R  c #C42C08",
"E  c #D12C05",
"W  c #C33206",
"Q  c #CC3406",
"!  c #C53A06",
"~  c #CC3B06",
"^  c #C3340A",
"/  c #CB3508",
"(  c #C43C0A",
")  c #CE3A09",
"_  c #D23505",
"`  c #D43B05",
"'  c #D83E04",
"]  c #D03208",
"[  c #D23D09",
"{  c #D83F08",
"}  c #A35217",
"|  c #CE4106",
" . c #CD420A",
".. c #CD4A0D",
"X. c #C2440C",
"o. c #D64206",
"O. c #DA4405",
"+. c #D64B07",
"@. c #DD4B05",
"#. c #D4440A",
"$. c #D94509",
"%. c #D54A0B",
"&. c #DC4C09",
"*. c #DF5106",
"=. c #D6510D",
"-. c #DE530C",
";. c #DC5A0E",
":. c #C74C12",
">. c #CA4E12",
",. c #D34E12",
"<. c #CD5816",
"1. c #D35411",
"2. c #DD5B12",
"3. c #D65A14",
"4. c #E15406",
"5. c #E1550A",
"6. c #E35C0B",
"7. c #E15E10",
"8. c #CD671E",
"9. c #CA6B1F",
"0. c #DB6415",
"q. c #DD6419",
"w. c #DC6C1B",
"e. c #E5630D",
"r. c #E8670E",
"t. c #E7680D",
"y. c #E96A0F",
"u. c #E36312",
"i. c #E86610",
"p. c #E66A13",
"a. c #E96C12",
"s. c #E76F1A",
"d. c #EB7314",
"f. c #ED7B16",
"g. c #E5741A",
"h. c #E9741A",
"j. c #E6781E",
"k. c #ED7B1A",
"l. c #F07E17",
"z. c #D87B27",
"x. c #E77D22",
"c. c #EA7F23",
"v. c #EE821C",
"b. c #EF891F",
"n. c #F1841C",
"m. c #F38B1E",
"M. c #DA842D",
"N. c #DD8830",
"B. c #E48226",
"V. c #EB8222",
"C. c #EF8A23",
"Z. c #E7852D",
"A. c #EC8D28",
"S. c #F08520",
"D. c #F28C22",
"F. c #F08E28",
"G. c #EF9B2D",
"H. c #F49324",
"J. c #F69826",
"K. c #F2952B",
"L. c #F59B2B",
"P. c #F99E2A",
"I. c #EB9531",
"U. c #F39D31",
"Y. c #F7A22E",
"T. c #F9A22E",
"R. c #F5A333",
"E. c #F9A631",
"W. c #F7A935",
"Q. c #F9AB34",
"!. c #F1A73D",
"~. c #F7AB3A",
"^. c #F8AC39",
"/. c #FAB23B",
"(. c #FBB137",
"). c #EFAA4E",
"_. c #F6AF40",
"`. c #F6B343",
"'. c #F9B443",
"]. c #FABB45",
"[. c #F6B149",
"{. c #F8B749",
"}. c #F9BC4B",
"|. c #EFB15C",
" X c #FBC54A",
".X c #FCC447",
"XX c #FAC452",
"oX c #F9C55A",
"OX c #F6C463",
"+X c #F9D46E",
"@X c #F9D774",
"#X c #F9D877",
"$X c None",
/* pixels */
"$X$X$X$X$X$X$X$X$X$X$X$X$X$X$X$X$X$X$X$X$X$X$X$X$X$X$X$X$X$X$X$X$X$X$X$X$X$X$X$X$X$X$X$X$X$X$X$X$X$X",
"$X$X$X$X$X$X$X$X$X$X$X$X$X$X$X$X$X$X$X$X$X$X$X$X$X$X$X$X$X$X$X$X$X$X$X$X$X$X$X$X$X$X$X$X$X$X$X$X$X$X",
"$X$X$X$X$X$X$X$X$X$X$X$X$X$X$X$X$X$X$X$X$X$X$X$X$X$X$X$X$X$X$X$X$X$X$X$X$X$X$X$X$X$X$X$X$X$X$X$X$X$X",
"$X$X$X$X$X$X$X$X$X$X$X$X$X$X$X$X$X$X$X$X$X$X$X$X$X$X$X$X$X$X$X$X$X$X$X$X$X$X$X$X$X$X$X$X$X$X$X$X$X$X",
"$X$X$X$X$X$X$X$X$X$X$X$X$X$X$X$X$X$X$X$X$X$X_ Q / Z F ) 2.$X$X$X$X$X$X$X$X$X$X$X$X$X$X$X$X$X$X$X$X$X",
"$X$X$X$X$X$X$X$X$X$X$X$X$X$X$X$X$X$X#.) R Q _ R ^  .A n ) x.2.+.$X$X$X$X$X$X$X$X$X$X$X$X$X$X$X$X$X$X",
"$X$X$X$X$X$X$X$X$X$X$X$X$X$X$X$X#.{ &.5.{ Y / / m m p C Q 5.5.&.` ) $X$X$X$X$X$X$X$X$X$X$X$X$X$X$X$X",
"$X$X$X$X$X$X$X$X$X$X$X$X$X$X+.&.Z ( #.F h P i 7 = 7 h Y { O.O.&.` ` Q #.$X$X$X$X$X$X$X$X$X$X$X$X$X$X",
"$X$X$X$X$X$X$X$X$X$X$X$X$X*.-._ h n F m Z ] Y I ^ ) ` O.{ _ ` { o.Q Q ` ` | $X$X$X$X$X$X$X$X$X$X$X$X",
"$X$X$X$X$X$X$X$X$X$X$X6 | *.u.*.o.Q #.@.$.O.O.@.p.i.@.O.@.@.&.@.o.` ` @.` Q Q $X$X$X$X$X$X$X$X$X$X$X",
"$X$X$X$X$X$X$X$X$X$XB W *.e.e.5.i.d.e.5.{ { O.@.e.d.a.5.@.6.6.d.y.6.@.O.O.O.` U $X$X$X$X$X$X$X$X$X$X",
"$X$X$X$X$X$X$X$X$XU +.@.-.d.*.@.k.S.t.6.*.6.6.4.6.d.l.k.i.e.5.r.y.e.@.O.` ` ` ` / $X$X$X$X$X$X$X$X$X",
"$X$X$X$X$X$X$X$X$XU @.6.k.a.6.6.d.d.y.a.7.6.6.d.k.S.n.^.'.k.6.h.H.f.e.4.@.Y _ O.` | $X$X$X$X$X$X$X$X",
"$X$X$X$X$X$X$X$X+.#.6.k.d.*.6.d.k.6.e.a.i.l.S.D.P.E.J./.+X[.k.l.H.H.y.y.5.O.Q ` C ! $X$X$X$X$X$X$X$X",
"$X$X$X$X$X$X$Xe.6.e.@.i.;.Z e.m.n.k.m.l.l.D.k.D.P.E./.^.XX{.n.d.P.H.5.4.4.4.` ` V 0 ( $X$X$X$X$X$X$X",
"$X$X$X$X$X$X$Xa.4.Z 9 0.F  .y.d.d.d.F.P.k.n.D.K.L.P.L. X#X}.D.n.E.m.t.4.4.4.O.Q Y a W $X$X$X$X$X$X$X",
"$X$X$X$X$X$Xv.e.@.N v M.;.d.d.d.i.-.a.H.k.F.~.H.h.n.H.oX#X{.H.P.T.v.y.4.@.@.O.Y Y C o.+.$X$X$X$X$X$X",
"$X$X$X$X$X$Xv.y.~ G M.`.L.Q.P.j.^ 2.d.S./.~.D.k.j.d.k.9.I.H.e.y.m.l.l.e.4.4.O._ p u ! +.$X$X$X$X$X$X",
"$X$X$X$X$XG.v.y.D b {.XX}./.R.j.0.K.^.L.C.d.-.q.Z.g.-.Z g.A.+.%.v.m.m.l.n.d.@.O.V u o.O.h $X$X$X$X$X",
"$X$X$X$X$X!.H.m...M.L.H.Q.'.G.Y.`.}. X^.i.-.A n U [ ` ` k.W.&.O.4.d.n.m.n.n.4.O.` Y O.o.C $X$X$X$X$X",
"$X$X$X$X$XA.b.=...K.m.Y.P.W.'.Q.Y.L.R.q.#.Q i h / C Q ` u.I.) $.&.p.v.d.6.r.t.4.@._ O.O.Q $X$X$X$X$X",
"$X$X$X$X$Xb.d.3.w.j.H.R.P.L.z.0.R.W.v.) P Q R C ) R R R 2.V.7.j...d.n.m.y.@.6.@.O.' O.@._ $X$X$X$X$X",
"$X$X$X$Xg.R.J.b.W.J.J.P.m.e.N } V.J.t.O._ Q Q _ ) P h W 6.6.7.!.d.e.d.J.n.t.@.6.t.@.O.' Y g $X$X$X$X",
"$X$X$X$X..).~.v.P.Y.E./.H.y.;...-.n.6.O.{ P h U Y h h { e.&.%.Y.m.m.m.J.d.y.e.6.e.@.O.' W g $X$X$X$X",
"$X$X$X$X..|.{.H.D.H.m.m.H.J.v.e.@.4.5.o./ K d R _ ) R 7.a.*.7.`.v.b.S.H.d.e.4.r.4.@.O.O.O.U $X$X$X$X",
"$X$X$X$X9.OXoXY.m.H.m.m.d.d.m.J.-.o.5.6.` P e A 3.V.x.g.a.e.A.XXm.e.A.Y.t.t.4.6.4.@.O.@.o.U $X$X$X$X",
"$X$X$X$Xz.~.{././.Q.J.P.v.6.d.b.p.7.S.a.{ Q a >.,.,.x.K.E.P.^.K.u.h.(.^.e.6.6.y.4.4.O.@._ C $X$X$X$X",
"$X$X$X$X$XL.D.v.W./.E.m.f.;.e.d.[ ^ V.7.{ L R ^ [ P Y u.E. XW.6.e.P./.Y.@.O.6.y.4.O.O.@._ Q $X$X$X$X",
"$X$X$X$X$XV.u.a.j.g.Q.m.i.Q U  .%.) d.@._ P %.7.u.=.7.b.Q..XR.` P &.h.S.@.4.y.y.4.O.O.O.Q $X$X$X$X$X",
"$X$X$X$X$XB. .v.e.f.b.H.i.-.` ) u.S.L.i.E &.5./ m 9 u.W.^..X~.%.C Y ` d.d.d.y.4.@.O.O.O._ $X$X$X$X$X",
"$X$X$X$X$X9.- 1.e.d.v.J.j.a.d.k.g.R./.b.u.%.P r t g ) V./. X].C.%.h Y 5.y.l.6.@.O.O.' _ { $X$X$X$X$X",
"$X$X$X$X$X} ; 1.0.=.y.y.h.H.m.D.d.u.H.J.S.-.h r P I ` ` 7.K./.L.-.I E r.d.r.4.@.@.' _ P [ $X$X$X$X$X",
"$X$X$X$X$X$Xl m ) [ -.Q 2.k.u.n.7.{ 5.u.d.u.R h ] ,.[ [ @.5.s.a.{ f K 7.6.*.O.@.@.' V 9 $X$X$X$X$X$X",
"$X$X$X$X$X$X9 * 5 d P K ] s.o.4.p.-.5.7.,.:.s.5.-.7.] { 4._ { E h K y _ @.O.O.@.O.' 6 m $X$X$X$X$X$X",
"$X$X$X$X$X$X$X<   : 4 4 K 2.5.o.#._ [ I R T -.h.S.k.p.$.5.&.E L y K J P E O.O.@.O.U - $X$X$X$X$X$X$X",
"$X$X$X$X$X$X$X, X # % > e f ` ` K h K L 5.&._ $.s.h.5.s.a.6.&.E f I I J H L O.O.' h n $X$X$X$X$X$X$X",
"$X$X$X$X$X$X$X$X& , + & q 4 e T t h / _ @.{ K f K s 5 1.n.d.l.s.=.$._ I I _ O.O._ P $X$X$X$X$X$X$X$X",
"$X$X$X$X$X$X$X$X$X> % X > 4 3 3 e h $.[ o.K d J f i N ^ h.P.S.l.k.7.$.O.O.@.&.' ` / $X$X$X$X$X$X$X$X",
"$X$X$X$X$X$X$X$X$X3 1 + X & : * + & P ` ` L h J 3 5 S <.J.S.i.@.7.5.E O.O.@.@.' ` $X$X$X$X$X$X$X$X$X",
"$X$X$X$X$X$X$X$X$X$X3 3 % @ @ g M . 8 J L K J H 4 & u ,.i.5.@.` ' O.{ O.@.O.' _ $X$X$X$X$X$X$X$X$X$X",
"$X$X$X$X$X$X$X$X$X$X$Xq e i i > , # % q 8 d h I L f J E ' O.$._ O.O.O.@.O.O.) $X$X$X$X$X$X$X$X$X$X$X",
"$X$X$X$X$X$X$X$X$X$X$X$X$Xy J q 1 q w t e f L I E E _ ' ' ' ' _ O.O.O.O.o.Q $X$X$X$X$X$X$X$X$X$X$X$X",
"$X$X$X$X$X$X$X$X$X$X$X$X$X$Xd t 2 2 2 r J J f y H J _ E L L L E $.@.&.o.$X$X$X$X$X$X$X$X$X$X$X$X$X$X",
"$X$X$X$X$X$X$X$X$X$X$X$X$X$X$X$X% +     5 R Y E ] { ' L E E ] ` { &.%.$X$X$X$X$X$X$X$X$X$X$X$X$X$X$X",
"$X$X$X$X$X$X$X$X$X$X$X$X$X$X$X$X$X$X, $ o O j G [ +.@.{ $.*.&.o.$X$X$X$X$X$X$X$X$X$X$X$X$X$X$X$X$X$X",
"$X$X$X$X$X$X$X$X$X$X$X$X$X$X$X$X$X$X$X$X$X$Xk l z ( #.%.%.$X$X$X$X$X$X$X$X$X$X$X$X$X$X$X$X$X$X$X$X$X",
"$X$X$X$X$X$X$X$X$X$X$X$X$X$X$X$X$X$X$X$X$X$X$X$X$X$X$X$X$X$X$X$X$X$X$X$X$X$X$X$X$X$X$X$X$X$X$X$X$X$X",
"$X$X$X$X$X$X$X$X$X$X$X$X$X$X$X$X$X$X$X$X$X$X$X$X$X$X$X$X$X$X$X$X$X$X$X$X$X$X$X$X$X$X$X$X$X$X$X$X$X$X",
"$X$X$X$X$X$X$X$X$X$X$X$X$X$X$X$X$X$X$X$X$X$X$X$X$X$X$X$X$X$X$X$X$X$X$X$X$X$X$X$X$X$X$X$X$X$X$X$X$X$X",
"$X$X$X$X$X$X$X$X$X$X$X$X$X$X$X$X$X$X$X$X$X$X$X$X$X$X$X$X$X$X$X$X$X$X$X$X$X$X$X$X$X$X$X$X$X$X$X$X$X$X"
};
