/* XPM */
static char *result[] = {
/* columns rows colors chars-per-pixel */
"50 50 245 2 ",
"   c #775C5C",
".  c #5B557C",
"X  c #5A5978",
"o  c #544D74",
"O  c #66596C",
"+  c #735C68",
"@  c #6A5E7C",
"#  c #645B76",
"$  c #6D596C",
"%  c #6E636D",
"&  c #73616C",
"*  c #7C6C6D",
"=  c #776567",
"-  c #64637D",
";  c #6B647D",
":  c #6D697E",
">  c #696373",
",  c #736374",
"<  c #736A73",
"1  c #736C7C",
"2  c #7A6D7B",
"3  c #766877",
"4  c #7C727B",
"5  c #797278",
"6  c #7C716A",
"7  c #7F6358",
"8  c #886B58",
"9  c #977458",
"0  c #926B52",
"q  c #AA7A4D",
"w  c #846B67",
"e  c #8A7469",
"r  c #927A6B",
"t  c #95796B",
"y  c #847375",
"u  c #887979",
"i  c #937D75",
"p  c #816C78",
"a  c #B48956",
"s  c #BD915D",
"d  c #9C836C",
"f  c #8E837C",
"g  c #8C8275",
"h  c #92847D",
"j  c #9C8B7A",
"k  c #988778",
"l  c #9D917D",
"z  c #A3876D",
"x  c #BA956C",
"c  c #A38D79",
"v  c #A9957B",
"b  c #B59979",
"n  c #B09068",
"m  c #B9A375",
"M  c #C8985C",
"N  c #C38E51",
"B  c #C49A68",
"V  c #CDA466",
"C  c #C5A577",
"Z  c #D7AB69",
"A  c #3D5496",
"S  c #374C8F",
"D  c #3859A8",
"F  c #2C50AE",
"G  c #3864B9",
"H  c #3561B5",
"J  c #174CBB",
"K  c #4D5587",
"L  c #585C87",
"P  c #4D5B93",
"I  c #465799",
"U  c #545B92",
"Y  c #545C9B",
"T  c #585B98",
"R  c #4D4F82",
"E  c #655E87",
"W  c #5D6183",
"Q  c #59638D",
"!  c #55618B",
"~  c #4C619C",
"^  c #4F6096",
"/  c #546394",
"(  c #5C6493",
")  c #5E6994",
"_  c #52639C",
"`  c #5C649A",
"'  c #5C6B9B",
"]  c #55699E",
"[  c #5E739A",
"{  c #656483",
"}  c #6B6483",
"|  c #6C6B85",
" . c #64668D",
".. c #656A8C",
"X. c #6B6C8B",
"o. c #686688",
"O. c #726C83",
"+. c #756A87",
"@. c #6E718C",
"#. c #6D7487",
"$. c #747283",
"%. c #7C7584",
"&. c #7D7A84",
"*. c #74738B",
"=. c #7A7589",
"-. c #7B7B8C",
";. c #74788F",
":. c #636A93",
">. c #6C6B93",
",. c #636D9C",
"<. c #666995",
"1. c #6C7393",
"2. c #65729D",
"3. c #6B749B",
"4. c #6C799D",
"5. c #687496",
"6. c #737393",
"7. c #747A95",
"8. c #7C7D94",
"9. c #73759A",
"0. c #737C9C",
"q. c #7A7D9A",
"w. c #7A7694",
"e. c #706B92",
"r. c #445DA2",
"t. c #4C5EA4",
"y. c #4659A6",
"u. c #495BB0",
"i. c #4B64AC",
"p. c #4A66A8",
"a. c #5464A3",
"s. c #566BA5",
"d. c #5C6CA3",
"f. c #546AAA",
"g. c #5868AA",
"h. c #5B73A9",
"j. c #486BB6",
"k. c #546CB3",
"l. c #576DB6",
"z. c #4972BC",
"x. c #5472BB",
"c. c #5B75BA",
"v. c #5B76B6",
"b. c #616CA5",
"n. c #6473A4",
"m. c #6B7BA4",
"M. c #6374AB",
"N. c #6B7EAB",
"B. c #6678A7",
"V. c #7275A3",
"C. c #737DA3",
"Z. c #787CA3",
"A. c #647CB4",
"S. c #647CBB",
"D. c #667AB7",
"F. c #1A58C6",
"G. c #2963C5",
"H. c #3467C3",
"J. c #3B79D6",
"K. c #316ED3",
"L. c #3E58C2",
"P. c #4769C4",
"I. c #4774C6",
"U. c #5879C7",
"Y. c #567FD5",
"T. c #637EC7",
"R. c #837C84",
"E. c #837E8A",
"W. c #887B85",
"Q. c #807C91",
"!. c #7C818E",
"~. c #7D8293",
"^. c #7B839B",
"/. c #78849D",
"(. c #6C82AD",
"). c #7B85A3",
"_. c #7C8AA4",
"`. c #7684AB",
"'. c #7C8BAD",
"]. c #7683A6",
"[. c #6B82B5",
"{. c #6A82BB",
"}. c #6682B9",
"|. c #728BBA",
" X c #7789B4",
".X c #7B92B9",
"XX c #7F91AF",
"oX c #5C84C9",
"OX c #4F85D2",
"+X c #6788C4",
"@X c #728EC7",
"#X c #7592C3",
"$X c #7396CC",
"%X c #6198DE",
"&X c #8D8384",
"*X c #8B848A",
"=X c #8C8A8D",
"-X c #858489",
";X c #958985",
":X c #98938C",
">X c #828393",
",X c #868B95",
"<X c #8B8C94",
"1X c #838B9C",
"2X c #898897",
"3X c #928B96",
"4X c #8C939C",
"5X c #949294",
"6X c #93949A",
"7X c #9A9899",
"8X c #A79987",
"9X c #A49A92",
"0X c #A08B80",
"qX c #A8A28B",
"wX c #B8A586",
"eX c #A9A699",
"rX c #B3AA95",
"tX c #828BA3",
"yX c #828CA9",
"uX c #8591A3",
"iX c #8593AC",
"pX c #8B97A7",
"aX c #969AA5",
"sX c #8498B8",
"dX c #939DB1",
"fX c #9CA2A6",
"gX c #97A8B6",
"hX c #A6B5B5",
"jX c #AEB1A9",
"kX c #9FA49D",
"lX c #C3AB85",
"zX c #D0B88E",
"xX c #B8C4B8",
"cX c #B5C3AE",
"vX c #C5CBAB",
"bX c #DDE8BB",
"nX c #879DC5",
"mX c #8BA6C8",
"MX c #92ABC2",
"NX c #91B0D0",
"BX c #A6BBC6",
"VX c #A7CAD9",
"CX c #93C4E1",
"ZX c #CCDDC3",
"AX c None",
/* pixels */
"AXAXAXAXAXAXAXAXAXAXAXAXAXAXAXAXAXAXAXAXAXAXAXAXAXAXAXAXAXAXAXAXAXAXAXAXAXAXAXAXAXAXAXAXAXAXAXAXAXAX",
"AXAXAXAXAXAXAXAXAXAXAXAXAXAXAXAXAXAXAXAXB M M V Z Z V V C C AXAXAXAXAXAXAXAXAXAXAXAXAXAXAXAXAXAXAXAX",
"AXAXAXAXAXAXAXAXAXAXAXAXAXAXAXAX8XC Z Z M N a a a x B C lXwXb lXzXzXAXAXAXAXAXAXAXAXAXAXAXAXAXAXAXAX",
"AXAXAXAXAXAXAXAXAXAXAXAXAXAXjXfXc B B q q 0 0 9 q 8 8 d 9XqXv 8XwXlXzXzXAXAXAXAXAXAXAXAXAXAXAXAXAXAX",
"AXAXAXAXAXAXAXAXAXAXAXAXb c c d 8 0 8   + w e t c d t 8X9X3X5XeXj c rXjXzXzXAXAXAXAXAXAXAXAXAXAXAXAX",
"AXAXAXAXAXAXAXAXAXAXAXc k & + w p e O o O $ W.9X;Xu i rXeX5X2X6X:X8 g kXjXjX8XAXAXAXAXAXAXAXAXAXAXAX",
"AXAXAXAXAXAXAXAXAXAX4XE.; . , p 3 , # $ . @ 2 y -Xu e ;X*X=XQ.Z.tX#.3 Q.dXaX7Xi AXAXAXAXAXAXAXAXAXAX",
"AXAXAXAXAXAXAXAXpXyXQ.o.E T E # # R R R R . @ @ 8.R.y 3 +.+.+.9.0.3.b.>.V.yX7XW.0Xb AXAXAXAXAXAXAXAX",
"AXAXAXAXAXAXAXaX3Xp # E *.; @ , & % : / K o . . +.q.& $ E +.} e.: X 1.*.) A.D.w.3XW.C AXAXAXAXAXAXAX",
"AXAXAXAXAXAXAX*Xu i 3 2 5   & & % < 5 1 1 L  ...{ -.+.*XQ.; # } #.X 7.2X=. X@X XyX+.i AXAXAXAXAXAXAX",
"AXAXAXAXAXAXuX4 y p %.k d 0 * : : 6 u f -X:.) ) m./.4X<X2X; X X @.X !.6X5XtXsXnXZ.6.w i AXAXAXAXAXAX",
"AXAXAXAXAXtX1 < = , 2 W.g w 6 !.-.6 6 -.-.*.X X { 0.!.%.R.2 ; X.m.) - #.Q.Q.9.sX`.T E w i AXAXAXAXAX",
"AXAXAXAX|.6.> & & { O.w y 6 6 !.&Xg 5 5 > > W ..@.#.X.0.%.6XpX0.2.) X > o.o.E Z.yXU Y E w 0 AXAXAXAX",
"AXAXAXAXyX>X1 < < | > % < < : f :X:X5 > = < @.:.Q ......%.7XaXyX4.] K - C.E R E >.o ` 9.p w AXAXAXAX",
"AXAXAXiXC.4X7X;X$.1 3 O : | #.-X:XqX&.- > X W | $.1.:.5.: R.1X1X/.! W (.[.X. .T >.E  .;.W.i 8 AXAXAX",
"AXAXAX^.E.6X7X<X+.2 @ O 1 5 g ;X4XXX2.] a.p.^ X.| ^.C.' ..].XX_.].h.[ m.{.b.<.V.V.a.U e.W.t 8 AXAXAX",
"AXAX3XE.&XW.3X*X%.; + & 4 p k <XyXZ./ a.+Xi.r.U X.Z.9.T >.`. X Xd.M.v.[ v.b.M. XZ.U.Y D.E W.p $ AXAX",
"AXAX=X=X:Xi :X7Xu 3 , 2 4 %.q.w.).*.U Y p.I I P <.>.X.X.e.Z.9.V.B.a.h.2.` d. XQ.V.M.b.yXT W.t w AXAX",
"AXAXj =X=X;XqX9X7XW., O.O.b.3.>.,.} U a.~ l : W o.e.+.| 4.9...@.1.2.].#.,.M. XnXV.e.V.V.Q.Q.W.W.AXAX",
"AXj ;X:X=Xh :X7XQ.W.2 o.,.` ,.2.>.} O. ...f 5 1 O.X.9.7.|.|.' 2.5.[.2.{ ) g.S.mXV.e.e.e.Q.fX3X0Xu AX",
"AX5X:X=X4X=X:X,XW.i &.@.) / ' ) =.: : ! - - : 1 *.;.~._.].].0.0.B.[.(. .L y.l.S.T b.V.Q.Q.gXaX9Xj AX",
"AX6X-X,X/.,X,X1XE.u >X7.! /.#.X - X / X W - - #.4X,X!._.!.7.7.-.0.1.0.#.L T g.g.T +.V.e.<.Q.W.9Xv AX",
"AX6X~.uXXX7X6X^.~.=X,X/.(.h./ ! X ..#.- ! ! ) #.4X,X!.1X~.6.7.uX!.&.$.; # X.g.c.T +.e.e.E Q.W.9Xv AX",
"AX4X_.1XiXkX7X1X/.pX/.[ |.oX}.] D ~ { - ^ h.(./ :._.^.4X-.1./.^.#.-.4 : - ; ,.l.g.e.Q.E e.+.y W.r AX",
"AX4XpXuXgXfX,X_._.~./.4.(.|..Xv.D s.[ K I a.P P I }.NXuX{ 1.tX*.X.^.-.-.1.| ).N.u.E 3 E e.Q.p *X8 AX",
"AXpXgXsXgXpX!.!.,X~.!./._._.(.h.p.m.4.) S I s.D F s.mXtXW Z.Z. .4./.~.-.*.E.gXnXg.E } , 2 *XW.&X< AX",
"AX4XMXmXdX4X,X~.1X^.!.7.1.5.[ s.p.4.#.W P ~ n.n.D i.A.3...`. X3.>.@.-.-.q.1XgXsXD.e.; , p f :X;X< AX",
"AX~.MXCXgX5X4X/.'.0.7.3.) ) m.B.p.2.1./ K D d.d.h.{.|..XtXiXV.<. .{ - : 7. XmXXXV.V.*.1 1 q.kX8X* AX",
"AX!.NXCX$XuX4X_.MX'.].1.) ' 3.m.m.) ! 5.U _ _ n.#X`.XXBXxXjX8.X.*.X # 5 &.`.|.[.b.C.7.+.<.u.BXrXy AX",
"AX&.gXVXNXuX4X4XgXiX).7.:.5.,.3.2.^ P P ) 3.B. X X(.iXxXbXvX<X3.{ . X 4 -X/.}.h.n.`.3.( a.S.BXjXg AX",
"AX5 kXZXBX/.:X7XdXpXuX/.C.m.B.3.] p.p.p./ 3.sXmX#XN.`.hXbXxXuX(.a./ L > -.|.+Xv.d.( U Y b.sXxXeXi AX",
"AXAXf cXBX~.-XkXhXhX<X7.^.0.3.2.' ^ U _ / [  X|.@Xh.B.gXBXhX1XN.D.D.n.L ..v.c.z.g.Y Y a.b.yXhX5XAXAX",
"AXAXf eXcXpX-X:XeXfX;...6X1X7.5.) P / / ,.A.A.s.d.(.XX.XiXsXD.D.M.B.v.H z.j.h.oXh.r.a.I ` Z.pX=XAXAX",
"AXAXg !.qX:X&Xm qX6X4.p.,X/.@.) p.I ^ / 2.M.f.I / B.|..X#XD.c.x.f.h.~ x.J.G k.z.x.i.t.a.V.N._.;XAXAX",
"AXAXAX6 g j k n l 4X-X[ :.n.[ ' / ~ a.[ ' n./ / ) m.sX$XT.S.k.x.p.p.p.p.I.z.OXP.c.l.g.D.h.' =.AXAXAX",
"AXAXAX= 7 r j h f g l 4 o.1.3.4.3.h.[ ) Q :.' B.) (..XU.T.S.[.D.r.r.f.z.j.OXOXP.T.+XS.S.I / } AXAXAX",
"AXAXAXAX7 8 t &X;Xh qX;X7.].^.'./.:...:.7.pX_.' _ S.+Xc.T.D.D.h.] }..XoXH OX%XOXY.$X@Xc.y.2.AXAXAXAX",
"AXAXAXAX8 u t W.E.Q.pXaX<X~.<XgX/...#.7./.4X4.) 2.{.[.h.v.@XT.x.p.}.oXG J.J.x.OX$XmX{.i.s.4.AXAXAXAX",
"AXAXAXAXAXr ;Xk W.fXmXyX6X=X4XBXgXQ > ; ..| @.- ].(.d.s.U.x.I.oXp.I.H G.K.J.z.$XVXmXx.k.B.AXAXAXAXAX",
"AXAXAXAXAXAXc c k jXVXmX`.<X3XdXaX;.#...X.: $.{ 5.n.] ' v.x.j.i.G G H F.F.G z.#X$XoXy.n.AXAXAXAXAXAX",
"AXAXAXAXAXAXAXwXc 8XjXBXyX-.2X=X*X=.$.6.#.- { W [ ) / [ x.j.D D G.G.G.L.J J D g.c.l.' AXAXAXAXAXAXAX",
"AXAXAXAXAXAXAXx b b b eX7X=.4 -.1X~.} @.-XO.5...#.) ! A H G D D H.K.P.u.F F u.L.u.a.2.AXAXAXAXAXAXAX",
"AXAXAXAXAXAXAXAXa m n wX8Xj i <X-.} : 1 *.:././.! K S A A F D j.k.v.g.u.y.u.L.L.i./ AXAXAXAXAXAXAXAX",
"AXAXAXAXAXAXAXAXAXAXs x z d z :X=X=   & -._.MX).- S S r.A D v.l.b.' T T g.T.U.S.AXAXAXAXAXAXAXAXAXAX",
"AXAXAXAXAXAXAXAXAXAXAXs b t t t y = & O O 1.MX'.) I p.#.I a.l.M.b.n.,.g.l.g.b.AXAXAXAXAXAXAXAXAXAXAX",
"AXAXAXAXAXAXAXAXAXAXAXAXx b b t p w + O o ; 9.h.p.j./.5.d.,.,.Z.iX XD.g.Y U AXAXAXAXAXAXAXAXAXAXAXAX",
"AXAXAXAXAXAXAXAXAXAXAXAXAXAXlXwXc r   $ , =.>.{ P t.h.Q X.+.q.pXgXyXe.} AXAXAXAXAXAXAXAXAXAXAXAXAXAX",
"AXAXAXAXAXAXAXAXAXAXAXAXAXAXAXAXb z 9 w y -X*XR., # { } @.%.j &XW.y AXAXAXAXAXAXAXAXAXAXAXAXAXAXAXAX",
"AXAXAXAXAXAXAXAXAXAXAXAXAXAXAXAXAXAXAXAXe e u e e e e d j g AXAXAXAXAXAXAXAXAXAXAXAXAXAXAXAXAXAXAXAX",
"AXAXAXAXAXAXAXAXAXAXAXAXAXAXAXAXAXAXAXAXAXAXAXAXAXAXAXAXAXAXAXAXAXAXAXAXAXAXAXAXAXAXAXAXAXAXAXAXAXAX"
};
