/* XPM */
static char *result[] = {
/* columns rows colors chars-per-pixel */
"50 50 241 2 ",
"   c #DC2B01",
".  c #D42300",
"X  c #DC3701",
"o  c #DF3A17",
"O  c #E53501",
"+  c #E43C01",
"@  c #E43A0C",
"#  c #D83724",
"$  c #E54301",
"%  c #EB4401",
"&  c #EC4B01",
"*  c #EA4905",
"=  c #F44C03",
"-  c #F34905",
";  c #EE5302",
":  c #EE5708",
">  c #F25402",
",  c #F95404",
"<  c #F35C03",
"1  c #FA5C04",
"2  c #FB5C0B",
"3  c #F7570A",
"4  c #ED5318",
"5  c #F25B16",
"6  c #F56303",
"7  c #FB6404",
"8  c #FB6B04",
"9  c #F5630A",
"0  c #FD640C",
"q  c #FB6A0C",
"w  c #F66A07",
"e  c #FA7405",
"r  c #FC7A04",
"t  c #FC740A",
"y  c #FB7B0A",
"u  c #F67606",
"i  c #F66319",
"p  c #F96715",
"a  c #FD7413",
"s  c #FD7C1B",
"d  c #FF771A",
"f  c #DB4431",
"g  c #DA4732",
"h  c #E34623",
"j  c #F05C25",
"k  c #E24A30",
"l  c #E75632",
"z  c #E75425",
"x  c #EF6225",
"c  c #F66A25",
"v  c #FD7522",
"b  c #FF7C23",
"n  c #FD772B",
"m  c #EE6436",
"M  c #F87735",
"N  c #F36B33",
"B  c #DC5444",
"V  c #DC5B50",
"C  c #D04340",
"Z  c #E25A41",
"A  c #E6644A",
"S  c #F16C41",
"D  c #F37442",
"F  c #F67D47",
"G  c #E46B59",
"H  c #E87359",
"J  c #F57D51",
"K  c #DB6E67",
"L  c #E47667",
"P  c #FC8304",
"I  c #FD8B04",
"U  c #FD840B",
"Y  c #FE8B0C",
"T  c #F68601",
"R  c #EB9C03",
"E  c #F59401",
"W  c #FB9B04",
"Q  c #F49C0B",
"!  c #FB9E0C",
"~  c #FA9706",
"^  c #FD8213",
"/  c #FD8C14",
"(  c #FE8E1B",
")  c #FF831B",
"_  c #FF9214",
"`  c #FB9D14",
"'  c #FE951E",
"]  c #FD9C1A",
"[  c #F59B18",
"{  c #EDA302",
"}  c #E7AB01",
"|  c #ECAB01",
" . c #E8A806",
".. c #F1A303",
"X. c #FBA403",
"o. c #F2AC04",
"O. c #F5A20B",
"+. c #FBA30C",
"@. c #F4AB0B",
"#. c #F9AB0D",
"$. c #F9AC06",
"%. c #E6B301",
"&. c #EAB402",
"*. c #E6BC01",
"=. c #EABC02",
"-. c #E9B90C",
";. c #F3B404",
":. c #F2BB04",
">. c #F3B20A",
",. c #F2BA09",
"<. c #F9B80B",
"1. c #ECAA14",
"2. c #FDA313",
"3. c #FCAA13",
"4. c #FEA31A",
"5. c #F9A818",
"6. c #E9B717",
"7. c #FCB314",
"8. c #FBB717",
"9. c #FE8923",
"0. c #FF8728",
"q. c #FC9A26",
"w. c #FE8635",
"e. c #FF9635",
"r. c #FF993A",
"t. c #FDA828",
"y. c #EDB726",
"u. c #FCB928",
"i. c #FEA430",
"p. c #FFAB34",
"a. c #FCA93C",
"s. c #EDB937",
"d. c #FCB638",
"f. c #E7C301",
"g. c #EBC202",
"h. c #EBCC03",
"j. c #E9CB03",
"k. c #F2CB0C",
"l. c #F6C409",
"z. c #EBD303",
"x. c #ECD608",
"c. c #F2D70A",
"v. c #EDDB15",
"b. c #F5D818",
"n. c #F1C617",
"m. c #F9E31B",
"M. c #F7D825",
"N. c #F6C838",
"B. c #F7DD3C",
"V. c #F1CA2E",
"C. c #F6E639",
"Z. c #F4E523",
"A. c #FA8A47",
"S. c #FE9849",
"D. c #F68755",
"F. c #FD9C54",
"G. c #FB965C",
"H. c #FDA548",
"J. c #FDB746",
"K. c #FFA758",
"L. c #FDB857",
"P. c #EEBF4F",
"I. c #EA846F",
"U. c #EB8066",
"Y. c #F99966",
"T. c #EF9379",
"R. c #F69875",
"E. c #F28B68",
"W. c #FDA36A",
"Q. c #FEAB67",
"!. c #FFB76A",
"~. c #FBA671",
"^. c #FDAB7B",
"/. c #FCA778",
"(. c #FFB572",
"). c #FFBD76",
"_. c #FEB67B",
"`. c #EEC349",
"'. c #F8C749",
"]. c #EEC754",
"[. c #FCC45C",
"{. c #F7CC58",
"}. c #FBD956",
"|. c #FDD04F",
" X c #F6E545",
".X c #F5E75A",
"XX c #EEE145",
"oX c #FAC866",
"OX c #F9D668",
"+X c #FEC27B",
"@X c #FDC875",
"#X c #F9D87A",
"$X c #FBE86C",
"%X c #F4E973",
"&X c #F19E89",
"*X c #F09881",
"=X c #EB9C91",
"-X c #FCAB83",
";X c #FBAB8A",
":X c #F4A385",
">X c #FCB284",
",X c #FCB48A",
"<X c #FEBA8C",
"1X c #FFBA85",
"2X c #F7AB94",
"3X c #FBB392",
"4X c #FDBB9B",
"5X c #FCB699",
"6X c #EFA091",
"7X c #FAB9A4",
"8X c #FFC988",
"9X c #FFD481",
"0X c #FDD099",
"qX c #F9E288",
"wX c #F7E996",
"eX c #FEC1A5",
"rX c #FDC3AB",
"tX c #FEC9AA",
"yX c #FFC9A4",
"uX c #FECDB4",
"iX c #FDCDBC",
"pX c #FFD3BC",
"aX c #FFD8B5",
"sX c #F8DAA2",
"dX c #FDF7A6",
"fX c #FBE6B8",
"gX c #F7EDAF",
"hX c #FFDDC5",
"jX c #FFDECB",
"kX c #FED5C3",
"lX c #FDCFC0",
"zX c #FEE6C8",
"xX c #FDF3CB",
"cX c #FFE4D3",
"vX c #FFECDB",
"bX c #FFE8D0",
"nX c #FDF4D6",
"mX c #FFEEE1",
"MX c #FFF3E3",
"NX c #FFF5EA",
"BX c None",
/* pixels */
"BXBXBXBXBXBXBXBXBXBXBXBXBXBXBXBXBXBXBXBXBXBXBXBXBXBXBXBXBXBXBXBXBXBXBXBXBXBXBXBXBXBXBXBXBXBXBXBXBXBX",
"BXBXBXBXBXBXBXBXBXBXBXBXBXBXBXBXBXBXBXBXBXBXBXBXBXBXBXBXBXBXBXBXBXBXBXBXBXBXBXBXBXBXBXBXBXBXBXBXBXBX",
"BXBXBXBXBXBXBXBXBXBXBXBXBXBXBXBXBXBXBXBXBXBXBXBXBXBX4.4.4.] BXBXBXBXBXBXBXBXBXBXBXBXBXBXBXBXBXBXBXBX",
"BXBXBXBXBXBXBXBXBXBXBXBXBXBXBXBXBXBXQ +.Q { { R { { { ..O.2.2.4.BXBXBXBXBXBXBXBXBXBXBXBXBXBXBXBXBXBX",
"BXBXBXBXBXBXBXBXBXBXBXBXBXBXBX2.+.o.%.*.6.y.s.P.].].`.V.6.-.} { O.5.8.BXBXBXBXBXBXBXBXBXBXBXBXBXBXBX",
"BXBXBXBXBXBXBXBXBXBXBXBXBXt.2.{ =.6.].qXfXnXNXNXNXNXNXMXnXgX#Xs. .} 7.4.BXBXBXBXBXBXBXBXBXBXBXBXBXBX",
"BXBXBXBXBXBXBXBXBX+.4.t.` @.} 6.OXfXNXNXNXNXNXMXNXMXMXNXNXNXNXnXsXP.=.&.3.2.BXBXBXBXBXBXBXBXBXBXBXBX",
"BXBXBXBXBXBXBXBXBX+.2.2.$.&.`.gXMXMXMXmXmXmXmXmXmXmXmXmXmXmXMXMXMXvXwXy.} O.[ q.BXBXBXBXBXBXBXBXBXBX",
"BXBXBXBXBXBXBXBXBX2.#.;.,.OXbXvXvXvXvXcXvXcXcXcXcXcXcXcXcXcXvXvXvXvXvXfXs.} o.5.[ [ BXBXBXBXBXBXBXBX",
"BXBXBXBXBXBXBXBX` @.*.=.oXzXbXcXcXcXjXkXhXhXkXiXlXlXpXlXhXjXjXcXcXcXbXbXaXs.%.&.[ [ [ BXBXBXBXBXBXBX",
"BXBXBXBXBXBXBX] #.=.=.P.fXhXhXzXkXlXiXiXuXtXyXyX7XeXrXrXrXuXiXiXkXjXzXzXaX0X6.*.=.] [ ` BXBXBXBXBXBX",
"BXBXBXBXBXBXBX#.*.| 1.8XaXpXpXpXpX7X7X7X2X5X5X0X4X4X5X5X4X4X7X7XtXuXpXpXpXaXoX=.f.>.4.+.BXBXBXBXBXBX",
"BXBXBXBXBXBX+.=.%.{ H.yXyXtXtXtXrXeX2X=X=X=X2X3X3X,X2X2X3X3X3X2X5X7XtXtXrXyX0X1.} *.@.! ! BXBXBXBXBX",
"BXBXBXBXBX+.&.*.| { !.<X<X5X4X4X5X,X;X&X:X6X&X&X&X&X,X<X,X<X<X,X;X3X4X4X5X,X<Xa.| *.=.+.+.BXBXBXBXBX",
"BXBXBXBXX.$.f.g.| Q ).-X;X;X;X,X1X>X^.^.^.>X>X,X:XT.*X-X>X-X;X1X1X,X;X-X-X-X1XH.E &.f.,.+.BXBXBXBXBX",
"BXBXBXBX+.:.z.;.../ (./.R.R.R.^.^.T.T.T./.^.^._._.T.T.T.~.T.T.^.1X^./.>X^./.-XH.E ,.x.j.3.BXBXBXBXBX",
"BXBXBXBX$.j.g.$.W ^ Q.R.R.R.R.~.~.T.I.I.I.I.I.E.~.~.~.~.~.~.T.E.~.(.(._.8X1X~.S.#.M.C.M.<.4.BXBXBXBX",
"BXBXBXBX:.j.g.b.V.U F.Y.Y.W.W.W.Q.Y.U.L L K K L E.W.Q.Q.W.W.!.E.E.Y.Q.(.+X8X!.e.'.wX%XXXh.5.BXBXBXBX",
"BXBXBXO.g.j.:.l.V.r w.E.D.G.Q.G.G.Y.D.K G L H L H D.G.G.K.G.Q.G.G.E.Y.Q.Q.(.Q.d.OXxXwX.Xx.>.BXBXBXBX",
"BXBXBX@.j.m.n.X.W I ) F J D.D.F.G.A.D.A V V G V G J G D.D.D.D.D.D.F.J D.Q.oXK.d.$XgXwX%Xv.,.BXBXBXBX",
"BXBXBX>.z. X}.#.W ~ t b D S A.S.A.w.M S B B g C A D B l A.F M D D D S S A.K.a.( t.wX.XM.b.=.4.BXBXBX",
"BXBXBX:.z.C.%X|.+.` y 7 c N N M w.w.M l g g g g g m l g x N m M l k k l w.d / Y ~ u.B.h.=.=.3.BXBXBX",
"BXBXBXg.z.k.M.|.u._ t = ; i x c c c n h # # h n x x z # h x x x j h h h 5 < t _ U I $.;.&.*.#.BXBXBX",
"BXBXBXk.z.:.<.+.u.U 1 = & : 9 i i 5 i 4 o 4 i s i p 9.5 o 4 4 5 i i 5 * > 8 6 U 7 u T | &.f.@.BXBXBX",
"BXBX+.k.h.b.u.P I t 3 % % & & 6 : q a 9 @ 2 2 q : 3 p a 9 3 - p d s 9 < + , 8 Y 7 8 T ..| *.7.BXBXBX",
"BXBX2.k.z.b.N.I I ' q.0 - % & 6 w u / 9 % ) ) e.) 9 t a 1 t 1 7 > : $ + X = 8 _ 8 e r E =.M.8.BXBXBX",
"BXBX2.k.z.l.l.Y r Y _ / r w & ; ; Y y & ; J.d.[.d.i.' q.y q.a.a & % > % % , 1 ^ 8 e W l. XdX|.BXBXBX",
"BXBXJ..Xv.:.<.+.8 U / t.^ y w < < w u 6 q.H.q.p./ p.' t.p.[.L.L._ 6 > < 6 < 8 U 8 r X.k.dXnXqXu.BXBX",
"BXBX9XnX Xg.,.+.8 ^ p.i.^ y 6 u u 6 e 8 ^ 9 : w Y ] U P J.@Xd.#Xi.6 ; 6 6 8 _ t 8 I <.b.dXxX}.5.BXBX",
"BXBX[.xX.Xb.l.7.U y L.i._ 8 < 8 e u e ^ y X X w 6 w y q.!.9.' ( 8 > & 6 < Y 2.8 7 X.$.k..X.Xu.BXBXBX",
"BXBXBXOXM.b.m.b.+.U J.p._ t 1 6 ; < ' ' _ : X & ; & : s p < t > > 6 , 6 e U e , 8 W <.c.v.8.` BXBXBX",
"BXBXBXu.x.b.m.C.7.t.#XJ.( > & < < 6 y ` u *   & 6 ; & & + + w < > < w u r t , 1 r E o.c.z.@.BXBXBXBX",
"BXBXBXBXn.c.C.%X'.u.|._ 8 % , 7 < 7 w u r u $ X ; 6 & & & ; ; w ; + > 6 7 7 7 8 P P E *.f.+.BXBXBXBX",
"BXBXBXBX7.c.Z.C.N.u.|.Y r 7 7 = & ; ; 6 ; 6 6 6 & ; + $ 9 u < < & ; , 8 8 2 7 r T E { f.&.BXBXBXBXBX",
"BXBXBXBX4.l.c.c.;.X.8.! P 7 <   . X $ 6 $ $ ; ; X $ $   * 6 6 w 6 8 w < 7 8 I P T | =.g.2.BXBXBXBXBX",
"BXBXBXBXBX#.c.h.;.<.W P 0 , - O O   + < & & ; ; $ & ; X X $ 6 u U r 8 7 , 8 I ~ ..=.f.>.4.BXBXBXBXBX",
"BXBXBXBXBX2.>.*.| >.` / d 0 2 =     = e 6 6 6 < ; ; & + & > < ; > 1 7 0 0 d ! X.| f.=.+.BXBXBXBXBXBX",
"BXBXBXBXBXBX4.| %.| [ t.q.v 0 - O > t < ; > ; & & & & & & = 1 , , , 7 d 9.q.t.@.&.j.3.` BXBXBXBXBXBX",
"BXBXBXBXBXBXBX+.&.%.Q i.r.w.0.p 2 0 8 1 6 , 1 - $ % > % % - - , 8 q d 9.r.d.V.=.f.l.4.BXBXBXBXBXBXBX",
"BXBXBXBXBXBXBX2.+.&. .[ J.H.r.n i 3 2 7 1 , , 1 , = < , = , , 2 a 9.e.H.J.d.,.*.,.4.BXBXBXBXBXBXBXBX",
"BXBXBXBXBXBXBXBX2.O. .} y.L.L.S.r.M b a 0 2 2 2 2 1 1 0 q a d 0.e.H.H.L.J.6.%.,.4.BXBXBXBXBXBXBXBXBX",
"BXBXBXBXBXBXBXBXBXt.2.&.} y.[.oX[.K.H.r.w.n v b ) s v n w.e.r.H.K.!.oXP.-.%.>.4.BXBXBXBXBXBXBXBXBXBX",
"BXBXBXBXBXBXBXBXBXBXq.O.l.f.-.N.oX@X).Q.Y.K.F.S.S.H.H.K.K.Q.!.@X@X[.y.=.&.O.2.BXBXBXBXBXBXBXBXBXBXBX",
"BXBXBXBXBXBXBXBXBXBXBX5.7.<.g.*.6.N.{.@X@X@X)._.+X_._.+X@X@X@XP.y.} } @.3.BXBXBXBXBXBXBXBXBXBXBXBXBX",
"BXBXBXBXBXBXBXBXBXBXBXBX4.7.7.#.=.*.f.n.V.`.{.oXoXoX{.`.s.y.1.R R R O.! BXBXBXBXBXBXBXBXBXBXBXBXBXBX",
"BXBXBXBXBXBXBXBXBXBXBXBXBXBXBX4.2.#.,.g.f.f.f.=.%.%. .}  .R { R Q BXBXBXBXBXBXBXBXBXBXBXBXBXBXBXBXBX",
"BXBXBXBXBXBXBXBXBXBXBXBXBXBXBXBXBXBX4.4.3.#.@.@.@.@.Q Q O.! BXBXBXBXBXBXBXBXBXBXBXBXBXBXBXBXBXBXBXBX",
"BXBXBXBXBXBXBXBXBXBXBXBXBXBXBXBXBXBXBXBXBXBXBXBXBXBXBXBXBXBXBXBXBXBXBXBXBXBXBXBXBXBXBXBXBXBXBXBXBXBX",
"BXBXBXBXBXBXBXBXBXBXBXBXBXBXBXBXBXBXBXBXBXBXBXBXBXBXBXBXBXBXBXBXBXBXBXBXBXBXBXBXBXBXBXBXBXBXBXBXBXBX",
"BXBXBXBXBXBXBXBXBXBXBXBXBXBXBXBXBXBXBXBXBXBXBXBXBXBXBXBXBXBXBXBXBXBXBXBXBXBXBXBXBXBXBXBXBXBXBXBXBXBX"
};
