/* XPM */
static char *result[] = {
/* columns rows colors chars-per-pixel */
"50 50 170 2 ",
"   c #A977AE",
".  c #AB7AAD",
"X  c #AE77B2",
"o  c #AE7BB1",
"O  c #B37DB6",
"+  c #B974BF",
"@  c #B67CBA",
"#  c #BB7FBE",
"$  c #BE6EC2",
"%  c #BA71C1",
"&  c #C270C7",
"*  c #C273C9",
"=  c #C974CE",
"-  c #C57CC9",
";  c #CA7ACF",
":  c #CD7AD2",
">  c #D17CD6",
",  c #D574DC",
"<  c #D67BDB",
"1  c #D87BDF",
"2  c #D875E2",
"3  c #D77DE2",
"4  c #DB7BE2",
"5  c #AD85B0",
"6  c #B383B5",
"7  c #B489B6",
"8  c #B584BA",
"9  c #BA86BE",
"0  c #B68CBA",
"q  c #BA8CBD",
"w  c #BA93BD",
"e  c #BC9BBC",
"r  c #BD84C1",
"t  c #BD8CC2",
"y  c #BD92C1",
"u  c #BF9CC1",
"i  c #BFA7C3",
"p  c #C286C5",
"a  c #C28CC5",
"s  c #C586C9",
"d  c #C984CD",
"f  c #C58CC8",
"g  c #CA8DCD",
"h  c #C393C5",
"j  c #C29DC5",
"k  c #C594C9",
"l  c #CA94CC",
"z  c #C698C8",
"x  c #CB9ACE",
"c  c #CD8AD2",
"v  c #D280D6",
"b  c #D780DC",
"n  c #DA82DF",
"m  c #D68FDC",
"M  c #CD94D2",
"N  c #CE9ED1",
"B  c #D194D5",
"V  c #D19CD4",
"C  c #D196D8",
"Z  c #D59CD9",
"A  c #C3A4C5",
"S  c #C3A9C4",
"D  c #CAA5CB",
"F  c #C7ABC9",
"G  c #CBACCD",
"H  c #CBB4CD",
"J  c #CDB9CE",
"K  c #CEA5D1",
"L  c #CEABD1",
"P  c #D2A4D5",
"I  c #D2ABD5",
"U  c #D5A4D9",
"Y  c #DAA5DE",
"T  c #D6AAD9",
"R  c #DAABDD",
"E  c #CFB4D1",
"W  c #CFBDD2",
"Q  c #D2B4D4",
"!  c #D3BCD5",
"~  c #DBB3DD",
"^  c #D6BBD8",
"/  c #DBBBDD",
"(  c #DD83E3",
")  c #DE8AE3",
"_  c #DE96E3",
"`  c #DE99E3",
"'  c #E085E6",
"]  c #E18BE6",
"[  c #E285EA",
"{  c #E58EEB",
"}  c #E98EEE",
"|  c #E292E6",
" . c #E29CE6",
".. c #E595E9",
"X. c #E994EE",
"o. c #E49CE9",
"O. c #EA9CEE",
"+. c #EA8FF1",
"@. c #EB96F1",
"#. c #EC9DF1",
"$. c #DDA5E2",
"%. c #DDABE1",
"&. c #DFB5E2",
"*. c #DEBEE1",
"=. c #E2A4E5",
"-. c #E1ABE5",
";. c #E7A0EC",
":. c #EAA3EE",
">. c #E5ADEA",
",. c #EAAAEE",
"<. c #E1B4E4",
"1. c #E2BBE5",
"2. c #E6B3EA",
"3. c #EBB5EE",
"4. c #E5BBE9",
"5. c #EBBCED",
"6. c #ECA4F1",
"7. c #ECAAF1",
"8. c #F0A9F2",
"9. c #EEB3F1",
"0. c #EEBDF1",
"q. c #F1B5F4",
"w. c #F2BBF4",
"e. c #D7C3D6",
"r. c #D7C3D9",
"t. c #DAC4DB",
"y. c #D7C8D9",
"u. c #DCCBDD",
"i. c #DED2DD",
"p. c #E0C5DF",
"a. c #E0CADF",
"s. c #E1D3DF",
"d. c #DEC5E0",
"f. c #DFCDE0",
"g. c #DED0E0",
"h. c #E3C3E4",
"j. c #E4CBE4",
"k. c #E6C4E9",
"l. c #E9C4EB",
"z. c #E7CBEA",
"x. c #EACCEC",
"c. c #E3D3E5",
"v. c #E5DAE6",
"b. c #E6D4E8",
"n. c #EBD3EC",
"m. c #E6D9E8",
"M. c #EADCEB",
"N. c #EEC3F1",
"B. c #EECCF1",
"V. c #F2C3F4",
"C. c #F3CBF5",
"Z. c #F5CEF8",
"A. c #EFD3F1",
"S. c #EFDAF1",
"D. c #F3D3F4",
"F. c #F4DCF5",
"G. c #F6D4F9",
"H. c #F7DCF9",
"J. c #F9DDFA",
"K. c #EDE4EE",
"L. c #F4E2F5",
"P. c #F8E3F7",
"I. c #F4E8F5",
"U. c #F9E8F7",
"Y. c #F7E3F8",
"T. c #F9E4FA",
"R. c #F6EAF9",
"E. c #FBEBFB",
"W. c #FCF2FC",
"Q. c None",
/* pixels */
"Q.Q.Q.Q.Q.Q.Q.Q.Q.Q.Q.Q.Q.Q.Q.Q.Q.Q.Q.Q.Q.Q.Q.Q.Q.Q.Q.Q.Q.Q.Q.Q.Q.Q.Q.Q.Q.Q.Q.Q.Q.Q.Q.Q.Q.Q.Q.Q.Q.Q.",
"Q.Q.Q.Q.Q.Q.Q.Q.Q.Q.Q.Q.Q.Q.Q.Q.Q.Q.Q.Q.Q.Q.Q.Q.Q.Q.Q.Q.Q.Q.Q.Q.Q.Q.Q.Q.Q.Q.Q.Q.Q.Q.Q.Q.Q.Q.Q.Q.Q.Q.",
"Q.Q.Q.Q.Q.Q.Q.Q.Q.Q.Q.Q.Q.Q.Q.Q.Q.Q.Q.Q.Q.Q.Q.Q.Q.Q.Q.Q.Q.Q.Q.Q.Q.Q.Q.Q.Q.Q.Q.Q.Q.Q.Q.Q.Q.Q.Q.Q.Q.Q.",
"Q.Q.Q.Q.Q.Q.Q.Q.Q.Q.Q.Q.Q.Q.Q.Q.Q.Q.Q.Q.Q.Q.Q.Q.Q.Q.Q.Q.Q.Q.Q.Q.Q.Q.Q.Q.Q.Q.Q.Q.Q.Q.Q.Q.Q.Q.Q.Q.Q.Q.",
"Q.Q.Q.Q.Q.Q.Q.Q.Q.Q.Q.Q.Q.Q.Q.Q.Q.Q.Q.Q.Q.Q.Q.Q.Q.Q.Q.Q.Q.Q.Q.Q.Q.Q.Q.Q.Q.Q.Q.Q.Q.Q.Q.Q.Q.Q.Q.Q.Q.Q.",
"Q.Q.Q.Q.Q.Q.Q.Q.Q.Q.Q.Q.Q.Q.Q.Q.Q.Q.Q.Q.Q.Q.Q.Q.Q.Q.Q.Q.Q.Q.Q.Q.Q.Q.Q.Q.Q.Q.Q.Q.Q.Q.Q.Q.Q.Q.Q.Q.Q.Q.",
"Q.Q.Q.Q.Q.Q.Q.Q.Q.Q.Q.Q.Q.Q.Q.Q.Q.Q.Q.Q.e.W H i S J v.v.Q.Q.Q.Q.Q.Q.Q.Q.Q.Q.Q.Q.Q.Q.Q.Q.Q.Q.Q.Q.Q.Q.",
"Q.Q.Q.Q.Q.Q.Q.Q.Q.Q.Q.Q.Q.Q.Q.Q.Q.S F J H H y.J e.J g.i.g.g.i.v.Q.Q.Q.Q.Q.Q.Q.Q.Q.Q.Q.Q.Q.Q.Q.Q.Q.Q.",
"Q.Q.Q.Q.Q.Q.Q.Q.Q.Q.Q.Q.Q.Q.i H y.y.c.t.J y.y.s.e.J u.W W f.i.c.v.K.Q.Q.Q.Q.Q.Q.Q.Q.Q.Q.Q.Q.Q.Q.Q.Q.",
"Q.Q.Q.Q.Q.Q.Q.Q.Q.Q.Q.Q.Q.H u.! H e.c.f.i.u.c.i.e.S F H i G y.M.v.v.M.u.Q.Q.Q.Q.Q.Q.Q.Q.Q.Q.Q.Q.Q.Q.",
"Q.Q.Q.Q.Q.Q.Q.Q.Q.Q.Q.j.e.G 7 S u u S ! t.g.j.L G E i w e.E c.M.M.M.v.v.v.Q.Q.Q.Q.Q.Q.Q.Q.Q.Q.Q.Q.Q.",
"Q.Q.Q.Q.Q.Q.Q.Q.Q.Q.v.! H 5 0 w w e H E E t.H 0 0 0 w 7 w W v.b.v.v.c.u.u.u.Q.Q.Q.Q.Q.Q.Q.Q.Q.Q.Q.Q.",
"Q.Q.Q.Q.Q.Q.Q.Q.Q.c.S w . . 6 w w j F ^ G F j 5 7 7 0 7 6 7 y.v.b.u.j.a.A j F Q.Q.Q.Q.Q.Q.Q.Q.Q.Q.Q.",
"Q.Q.Q.Q.Q.Q.Q.Q.f.t.7 . . . 6 q q 6 j E / A y q O 0 w 7 6 6 L t.F b.c.M.G j 0 D Q.Q.Q.Q.Q.Q.Q.Q.Q.Q.",
"Q.Q.Q.Q.Q.Q.Q.0 ^ G 8 o o o 6 8 0 y G D G Q D o X 6 h q 8 8 j Q j y u.m.c.u w j m.Q.Q.Q.Q.Q.Q.Q.Q.Q.",
"Q.Q.Q.Q.Q.Q.Q.y F q 9 6 6 O 9 8 h L ^ / H t.P O O O t 8 O 6 8 8 q 9 D j.M.j.e A c.Q.Q.Q.Q.Q.Q.Q.Q.Q.",
"Q.Q.Q.Q.Q.Q.t j q O y 8 9 r O t h t K L b.h.K t k k / L t 8 @ 9 O @ O q Q b.c.c.t.^ Q.Q.Q.Q.Q.Q.Q.Q.",
"Q.Q.Q.Q.Q.Q.t t h t h 9 t t 8 t h h t L d.I K k *.h I K @ # a a 9 9 p x G I / b.c.^ Q.Q.Q.Q.Q.Q.Q.Q.",
"Q.Q.Q.Q.Q.8 a k r h r r k k N l x T I *.*.l l t x N / / p 9 l r f a l z P D a h Q Q p.Q.Q.Q.Q.Q.Q.Q.",
"Q.Q.Q.Q.Q.p D x f r p T l k V I T R N N p N h f p T z.j.V l f s f l x a I h k p h ~ d.Q.Q.Q.Q.Q.Q.Q.",
"Q.Q.Q.Q.Q.r / x p p a x T T ~ &.*.&.R M g &.h.&.~ j.M.b.*.V g l l x n.h.1.l l g P I j.c.Q.Q.Q.Q.Q.Q.",
"Q.Q.Q.Q.+ p K B M s f ~ h.h.n.k.1.*.R M T n.z.x.b.F.I.S.z.1.T T B P b.n.h.I P l x I h.j.Q.Q.Q.Q.Q.Q.",
"Q.Q.Q.Q.% - g s U V Z R x.z.L.F.h.&.R d %.z.k.k.n.F.I.F.K.F.L.L.R ~ n.n.z.~ U M U j.n.z.Q.Q.Q.Q.Q.Q.",
"Q.Q.Q.Q.$ - d d C U C Z 1.z.j.1.$.Z %.C $.&.%.k.F.F.M.F.L.I.U.n.~ 2.x.n.L.b.4.U R 1.j.x.Q.Q.Q.Q.Q.Q.",
"Q.Q.Q.Q.% & - c c 1.-.Z R 5.k.2.%.$.%.$.l.z.1.l.n.F.S.L.L.R.R.S.k.k.l.h.x.L.k.l.1.<.k.z.Q.Q.Q.Q.Q.Q.",
"Q.Q.Q.Q.& = : : Z z.l.-.<.&.4.l.k.-.-.<.l.F.F.A.n.F.E.Y.L.I.I.R.I.F.n.2.1.D.D.x.1.1.&.h.Q.Q.Q.Q.Q.Q.",
"Q.Q.Q.Q.= : : > m =.4.=.$.-.>.2.3.5.2.C.L.D.H.D.F.F.L.L.L.E.U.U.W.R.x.2.2.D.h.B.-.D.l.B.Q.Q.Q.Q.Q.Q.",
"Q.Q.Q.Q.> v > b < =.=._ _ =.>. .>.l.2.>.N.F.A.C.D.D.H.F.F.Y.H.R.T.W.F.5.2.2.D.k.4.M.x.l.Q.Q.Q.Q.Q.Q.",
"Q.Q.Q.Q.1 , < < 3 1 n )  .o.=.o.2.N.C...=.A.H.D.A.G.F.F.I.Y.F.Y.Y.L.Y.C.C.D.D.F.G.D.F.x.Q.Q.Q.Q.Q.Q.",
"Q.Q.Q.Q.Q., < 1 4 1 ( )  .3.5.] o.o.0.l.o.5.5.G.H.F.T.F.J.F.H.F.H.Y.E.F.F.D.H.F.L.L.H.C.Q.Q.Q.Q.Q.Q.",
"Q.Q.Q.Q.Q.1 , ) 4 ( ) ] | ,.5.] ..o.9.3.o.7.N.G.J.F.F.F.H.P.T.G.H.E.T.U.L.F.F.T.E.U.J.Q.Q.Q.Q.Q.Q.Q.",
"Q.Q.Q.Q.Q.| 2 4 n 4 ' ] ] ] :...V.:.7.6.7.:.H.G.H.G.J.G.T.T.F.F.Y.Y.L.J.J.P.F.Y.W.E.L.Q.Q.Q.Q.Q.Q.Q.",
"Q.Q.Q.Q.Q.Q.] 4 4 ] ' q.} X.) :.x.:.8.6.#.:.V.G.H.H.T.J.E.T.G.H.T.J.T.F.H.T.T.U.E.Y.F.Q.Q.Q.Q.Q.Q.Q.",
"Q.Q.Q.Q.Q.Q.9.[ 6.X.7.w.9.9.8.:.V.w.9.6.O.O.,.V.T.E.E.E.E.J.H.E.T.T.H.H.T.J.J.E.P.H.Q.Q.Q.Q.Q.Q.Q.Q.",
"Q.Q.Q.Q.Q.Q.Q.w.9.:.,.V.V.X.7.V.w.w.q.#.X.#.:.V.E.U.E.W.T.T.E.T.H.H.T.T.R.T.E.Y.G.Q.Q.Q.Q.Q.Q.Q.Q.Q.",
"Q.Q.Q.Q.Q.Q.Q.C.w.7.0.Z.X.} X.q.9.6.q.8.6.w.D.E.W.W.E.E.E.E.J.T.T.E.J.J.T.Y.E.H.G.Q.Q.Q.Q.Q.Q.Q.Q.Q.",
"Q.Q.Q.Q.Q.Q.Q.Q.V.w.V.V.} X.+.#.q.q.w.G.G.J.T.E.W.W.W.W.W.E.T.E.J.T.J.R.T.E.J.G.Q.Q.Q.Q.Q.Q.Q.Q.Q.Q.",
"Q.Q.Q.Q.Q.Q.Q.Q.Q.C.C.C.3.6.@.6.Z.8.V.w.E.E.E.W.W.W.W.W.E.E.T.T.J.J.J.T.E.T.J.Q.Q.Q.Q.Q.Q.Q.Q.Q.Q.Q.",
"Q.Q.Q.Q.Q.Q.Q.Q.Q.Q.G.J.Z.V.q.w.G.q.Z.G.J.J.E.W.W.W.W.E.E.E.J.J.J.J.J.J.T.H.Q.Q.Q.Q.Q.Q.Q.Q.Q.Q.Q.Q.",
"Q.Q.Q.Q.Q.Q.Q.Q.Q.Q.Q.Z.J.T.Z.G.Z.Z.J.J.J.T.E.E.W.E.E.E.E.E.E.T.J.T.J.E.G.Q.Q.Q.Q.Q.Q.Q.Q.Q.Q.Q.Q.Q.",
"Q.Q.Q.Q.Q.Q.Q.Q.Q.Q.Q.Q.Q.G.G.q.C.J.J.T.H.J.T.E.E.W.E.W.E.E.T.J.E.E.T.T.Q.Q.Q.Q.Q.Q.Q.Q.Q.Q.Q.Q.Q.Q.",
"Q.Q.Q.Q.Q.Q.Q.Q.Q.Q.Q.Q.Q.Q.C.C.Z.G.H.J.J.H.T.E.W.W.E.E.E.E.E.E.T.T.Q.Q.Q.Q.Q.Q.Q.Q.Q.Q.Q.Q.Q.Q.Q.Q.",
"Q.Q.Q.Q.Q.Q.Q.Q.Q.Q.Q.Q.Q.Q.Q.Q.D.0.V.D.J.F.T.E.E.E.E.E.T.E.E.E.Q.Q.Q.Q.Q.Q.Q.Q.Q.Q.Q.Q.Q.Q.Q.Q.Q.Q.",
"Q.Q.Q.Q.Q.Q.Q.Q.Q.Q.Q.Q.Q.Q.Q.Q.Q.Q.Q.Q.D.H.H.T.T.E.E.E.R.Q.Q.Q.Q.Q.Q.Q.Q.Q.Q.Q.Q.Q.Q.Q.Q.Q.Q.Q.Q.Q.",
"Q.Q.Q.Q.Q.Q.Q.Q.Q.Q.Q.Q.Q.Q.Q.Q.Q.Q.Q.Q.Q.Q.Q.Q.Q.Q.Q.Q.Q.Q.Q.Q.Q.Q.Q.Q.Q.Q.Q.Q.Q.Q.Q.Q.Q.Q.Q.Q.Q.Q.",
"Q.Q.Q.Q.Q.Q.Q.Q.Q.Q.Q.Q.Q.Q.Q.Q.Q.Q.Q.Q.Q.Q.Q.Q.Q.Q.Q.Q.Q.Q.Q.Q.Q.Q.Q.Q.Q.Q.Q.Q.Q.Q.Q.Q.Q.Q.Q.Q.Q.Q.",
"Q.Q.Q.Q.Q.Q.Q.Q.Q.Q.Q.Q.Q.Q.Q.Q.Q.Q.Q.Q.Q.Q.Q.Q.Q.Q.Q.Q.Q.Q.Q.Q.Q.Q.Q.Q.Q.Q.Q.Q.Q.Q.Q.Q.Q.Q.Q.Q.Q.Q.",
"Q.Q.Q.Q.Q.Q.Q.Q.Q.Q.Q.Q.Q.Q.Q.Q.Q.Q.Q.Q.Q.Q.Q.Q.Q.Q.Q.Q.Q.Q.Q.Q.Q.Q.Q.Q.Q.Q.Q.Q.Q.Q.Q.Q.Q.Q.Q.Q.Q.Q.",
"Q.Q.Q.Q.Q.Q.Q.Q.Q.Q.Q.Q.Q.Q.Q.Q.Q.Q.Q.Q.Q.Q.Q.Q.Q.Q.Q.Q.Q.Q.Q.Q.Q.Q.Q.Q.Q.Q.Q.Q.Q.Q.Q.Q.Q.Q.Q.Q.Q.Q.",
"Q.Q.Q.Q.Q.Q.Q.Q.Q.Q.Q.Q.Q.Q.Q.Q.Q.Q.Q.Q.Q.Q.Q.Q.Q.Q.Q.Q.Q.Q.Q.Q.Q.Q.Q.Q.Q.Q.Q.Q.Q.Q.Q.Q.Q.Q.Q.Q.Q.Q."
};
