/* XPM */
static char *result[] = {
/* columns rows colors chars-per-pixel */
"50 50 149 2 ",
"   c #B5870F",
".  c #B5890D",
"X  c #B98B0D",
"o  c #BF9307",
"O  c #BD910B",
"+  c #B08211",
"@  c #B68A15",
"#  c #B98E10",
"$  c #BD9012",
"%  c #B99128",
"&  c #C19407",
"*  c #C69A04",
"=  c #C99D03",
"-  c #C3960A",
";  c #CA9709",
":  c #C69A0A",
">  c #CB9B09",
",  c #D59E06",
"<  c #D89E09",
"1  c #CD9A14",
"2  c #C49C18",
"3  c #CEA102",
"4  c #CCA008",
"5  c #D4A404",
"6  c #DAA305",
"7  c #D4A806",
"8  c #D6A208",
"9  c #D7AA09",
"0  c #D9AC0C",
"q  c #CFA61E",
"w  c #D7AC13",
"e  c #DAAE11",
"r  c #DCB116",
"t  c #DEB219",
"y  c #E1A205",
"u  c #E5AA03",
"i  c #E8AF00",
"p  c #E2A509",
"a  c #E5A90F",
"s  c #E9B202",
"d  c #EBB807",
"f  c #E7B30E",
"g  c #ECB60C",
"h  c #EEB90D",
"j  c #E5AA12",
"k  c #EAB211",
"l  c #E7B917",
"z  c #E1B41E",
"x  c #E9B11C",
"c  c #EBB81C",
"v  c #F1BF1D",
"b  c #C39B21",
"n  c #DCBB3F",
"m  c #E4B723",
"M  c #EAB727",
"N  c #E2BB25",
"B  c #EDB920",
"V  c #E5B32A",
"C  c #E7BA2C",
"Z  c #E9BB2D",
"A  c #F1BD2C",
"S  c #EBBE33",
"D  c #E7BE3C",
"F  c #EBBF3C",
"G  c #EEC018",
"H  c #F0C118",
"J  c #EAC026",
"K  c #F3C42D",
"L  c #F3C92E",
"P  c #ECC134",
"I  c #EEC138",
"U  c #F2C436",
"Y  c #F2C63C",
"T  c #F5CA3C",
"R  c #DEBB4A",
"E  c #EFC641",
"W  c #EACA45",
"Q  c #E5C44B",
"!  c #EBCB4D",
"~  c #F6CC45",
"^  c #F8CE47",
"/  c #F3CD4C",
"(  c #F9CE49",
")  c #F7D343",
"_  c #F6D24E",
"`  c #F9D14E",
"'  c #ECCB50",
"]  c #E8C259",
"[  c #EECA5D",
"{  c #F0C750",
"}  c #F3CB51",
"|  c #F3D552",
" . c #FAD452",
".. c #FAD954",
"X. c #F6D45C",
"o. c #FBD759",
"O. c #FBDA5B",
"+. c #EECB64",
"@. c #EECC68",
"#. c #F4D565",
"$. c #F5DA64",
"%. c #FADC64",
"&. c #F6DC6A",
"*. c #FBDE69",
"=. c #F6DC73",
"-. c #F5DC78",
";. c #FCE265",
":. c #FEE56C",
">. c #FEE370",
",. c #FEE877",
"<. c #FBE67D",
"1. c #FCE87E",
"2. c #EBD28C",
"3. c #F6DF83",
"4. c #FDEA84",
"5. c #F6E18D",
"6. c #FAE788",
"7. c #FEEB8B",
"8. c #F6E190",
"9. c #FCEC95",
"0. c #F6E39A",
"q. c #FCEC9B",
"w. c #F0DCA9",
"e. c #F7E5A4",
"r. c #F7E8A6",
"t. c #FCEDA0",
"y. c #F7E6AC",
"u. c #FBEDAE",
"i. c #FDF0AA",
"p. c #F7E7B2",
"a. c #FBEEB6",
"s. c #F4E5BA",
"d. c #F7E9BA",
"f. c #FEF2B1",
"g. c #FDF2BB",
"h. c #F5E7C5",
"j. c #F9EFCB",
"k. c #FDF4C1",
"l. c #FEF6CC",
"z. c #FDF6D2",
"x. c #FEF8D5",
"c. c #FAF3DA",
"v. c #FEF9DC",
"b. c #FBF6E5",
"n. c #FEFAE4",
"m. c #FEFBEC",
"M. c #FEFCF3",
"N. c #FFFEFA",
"B. c None",
/* pixels */
"B.B.B.B.B.B.B.B.B.B.B.B.B.B.B.B.B.B.B.B.B.B.B.B.B.B.B.B.B.B.B.B.B.B.B.B.B.B.B.B.B.B.B.B.B.B.B.B.B.B.",
"B.B.B.B.B.B.B.B.B.B.B.B.B.B.B.B.B.B.B.B.B.B.B.B.B.+.B.B.B.B.B.B.B.B.B.B.B.B.B.B.B.B.B.B.B.B.B.B.B.B.",
"B.B.B.B.B.B.B.B.B.B.B.B.B.B.B.B.B.B.B.B.B.B.B.B.+.#.B.B.B.B.B.B.B.B.B.B.B.B.B.B.B.B.B.B.B.B.B.B.B.B.",
"B.B.B.B.B.B.B.B.B.B.B.B.B.B.B.B.B.B.B.B.B.B.B.B.[ $.B.B.B.B.B.B.B.B.B.B.B.B.B.B.B.B.B.B.B.B.B.B.B.B.",
"B.B.B.B.B.B.B.B.B.B.B.B.B.B.B.B.B.B.B.B.B.B.B.B.[ &.,.B.B.B.B.B.B.B.B.B.B.B.B.B.B.B.B.B.B.B.B.B.B.B.",
"B.B.B.B.B.B.B.B.B.B.B.B.B.B.B.B.B.B.B.B.B.B.B.} [ -.6.B.B.B.B.B.B.B.B.B.B.B.B.B.B.B.B.B.B.B.B.B.B.B.",
"B.B.B.B.B.B.B.B.B.B.B.B.B.B.B.B.B.B.B.B.B.B.B.} [ 3.q.B.B.B.B.B.B.B.B.B.B.B.B.B.B.B.B.B.B.B.B.B.B.B.",
"B.B.B.B.B.B.B.B.B.B.B.B.B.B.B.B.B.B.B.B.B.B.B.} +.8.f.r.B.B.B.B.B.B.B.B.B.B.B.B.B.B.B.B.B.B.B.B.B.B.",
"B.B.B.B.B.B.B.B.B.B.B.B.B.B.B.B.B.B.B.B.B.B.` } +.0.k.k.B.B.B.B.B.B.B.B.B.B.B.B.B.B.B.B.B.B.B.B.B.B.",
"B.B.B.B.B.B.B.B.B.B.B.B.B.B.B.B.B.B.B.B.B.B. .} +.w.l.x.B.B.B.B.B.B.B.B.B.B.B.B.B.B.B.B.B.B.B.B.B.B.",
"B.B.B.B.B.B.B.B.B.B.B.B.B.B.B.B.B.B.B.B.B.B.` } +.y.v.v.j.B.B.B.B.B.B.B.B.B.B.B.B.B.B.B.B.B.B.B.B.B.",
"B.B.B.B.B.B.B.B.B.B.B.B.B.B.B.B.B.B.B.B.B.o.` } +.p.m.m.m.B.B.B.B.B.B.B.B.B.B.B.B.B.B.B.B.B.B.B.B.B.",
"B.B.B.B.B.B.B.B.B.B.B.B.B.B.B.B.B.B.B.B.B.O. .} @.d.M.M.N.h.B.B.B.B.B.B.B.B.B.B.B.B.B.B.B.B.B.B.B.B.",
"B.B.B.B.B.B.B.B.B.B.B.B.B.B.B.B.B.B.B.B.;.O.( } @.d.M.N.N.b.B.B.B.B.B.B.B.B.B.B.B.B.B.B.B.B.B.B.B.B.",
"B.B.B.B.B.B.B.B.B.B.B.B.B.B.B.B.B.B.B.B.;.O. .} @.d.M.N.N.M.B.B.B.B.B.B.B.B.B.B.B.B.B.B.B.B.B.B.B.B.",
"B.B.B.B.B.B.B.B.B.B.B.B.B.B.B.B.B.B.B.B.;.o.` / @.d.m.M.M.M.s.B.B.B.B.B.B.B.B.B.B.B.B.B.B.B.B.B.B.B.",
"B.B.B.B.B.B.B.B.B.B.B.B.B.B.B.B.B.B.B.:.;.O. .} @.p.n.n.m.n.x.B.B.B.B.B.B.B.B.B.B.B.B.B.B.B.B.B.B.B.",
"B.B.B.B.B.B.B.B.B.B.B.B.B.B.B.B.B.B.B.;.;.o.` } +.y.x.v.v.x.z.B.B.B.B.B.B.B.B.B.B.B.B.B.B.B.B.B.B.B.",
"B.B.B.B.B.B.B.B.B.B.B.>.>.>.>.>.>.>.>.:.;.O.` } +.e.l.l.l.l.k.,.:.:.:.:.:.:.:.B.B.B.B.B.B.B.B.B.B.B.",
"B.% R &.*.:.>.>.>.>.>.>.>.>.>.>.>.>.>.:.*.o.` } +.0.g.g.g.g.7.:.:.:.:.:.:.:.:.:.:.:.,.:.:.:.:.:.:.B.",
"B.B.B.@ b Q :.:.:.>.>.>.:.>.>.>.>.>.>.>.*.O.` } +.5.i.i.i.9.,.:.:.:.:.:.:.:.:.:.:.:.;.;.:.:.;.;.B.B.",
"B.B.B.B.. O O q ! *.*.:.=.:.>.>.:.>.:.>.:.%.` } [ 4.9.9.9.,.:.:.:.:.:.:.:.:.:.:.:.:.;.;...;.;.B.B.B.",
"B.B.B.B.B.X o - : 4 z ' :.:.>.:.>.>.>.>.*.*. .} [ =.1.4.,.:.:.:.:.:.:.:.:.:.;.;.;.......O.%.B.B.B.B.",
"B.B.B.B.B.B.O & * = 3 9 0 C X.:.:.>.>.>.>.>.%./ [ $.,.:.:.:.:.:.:.:.:.;.;._ ` ` ........%.B.B.B.B.B.",
"B.B.B.B.B.B.B.- * = 3 5 7 r t C E %.:.:.*.>.*.X.[ &.:.:.:.:.;.;.;.| P P P Y ~ `  . ...X.B.B.B.B.B.B.",
"B.B.B.B.B.B.B.B.* = 3 5 9 0 t m C S Y ( *.:.:.%.[ &.:.:.;.;.W w 9 r z C P Y ^ ` (  .B.B.B.B.B.B.B.B.",
"B.B.B.B.B.B.B.B.B.B.3 5 9 0 t m C S F Y ( ( o.*.$.$.$.n q o 4 3 7 e t C P Y _ ` X.B.B.B.B.B.B.B.B.B.",
"B.B.B.B.B.B.B.B.B.B.B.7 9 r t m V S F Y ~ ( ^ ~ V 1 $ # O o * 3 7 w m C P I ~ } B.B.B.B.B.B.B.B.B.B.",
"B.B.B.B.B.B.B.B.B.B.B.B.0 e z m C S F U T A a y 8 > 7 d w 4 4 4 7 w t Z S E { B.B.B.B.B.B.B.B.B.B.B.",
"B.B.B.B.B.B.B.B.B.B.B.B.B.e e m V S M a p y y y 6 . 4 d G J T N 0 r m C F ] B.B.B.B.B.B.B.B.B.B.B.B.",
"B.B.B.B.B.B.B.B.B.B.B.B.B.B.z z a p p y y y y i 6 X . 9 H L ) | O.>.' D B.B.B.B.B.B.B.B.B.B.B.B.B.B.",
"B.B.B.B.B.B.B.B.B.B.B.B.B.B.B.y y y y y y y u i , . . 4 G L T ..;.1.q.u.B.B.B.B.B.B.B.B.B.B.B.B.B.B.",
"B.B.B.B.B.B.B.B.B.B.B.B.B.B.B.y y y y y y u s s < X X & w L ) ..;.1.t.g.B.B.B.B.B.B.B.B.B.B.B.B.B.B.",
"B.B.B.B.B.B.B.B.B.B.B.B.B.B.y y y y y y y g s s < X   & 3 J ) ..;.1.t.a.2.B.B.B.B.B.B.B.B.B.B.B.B.B.",
"B.B.B.B.B.B.B.B.B.B.B.B.B.B.y y y y y p k h s s ,   . o * 9 T ..;.4.t.g.d.B.B.B.B.B.B.B.B.B.B.B.B.B.",
"B.B.B.B.B.B.B.B.B.B.B.B.B.B.y y y y y a v h s s ,   . o 4 9 J _ ;.1.t.g.x.B.B.B.B.B.B.B.B.B.B.B.B.B.",
"B.B.B.B.B.B.B.B.B.B.B.B.B.p y y y y a A v h s i ,   . & = 7 t _ ;.<.t.k.z.B.B.B.B.B.B.B.B.B.B.B.B.B.",
"B.B.B.B.B.B.B.B.B.B.B.B.B.y y y y p A K v h d s ,   . & = 7 t S O.1.t.k.z.w.B.B.B.B.B.B.B.B.B.B.B.B.",
"B.B.B.B.B.B.B.B.B.B.B.B.B.y y y y x T K v h s i ; + . o = 7 r C ! <.t.k.c.c.B.B.B.B.B.B.B.B.B.B.B.B.",
"B.B.B.B.B.B.B.B.B.B.B.B.B.y y y a ^ T K v h s 8 B.B.X o = 7 t Z T >.t.k.v.m.B.B.B.B.B.B.B.B.B.B.B.B.",
"B.B.B.B.B.B.B.B.B.B.B.B.p y y p T ^ T K v g 8 B.B.B.B.- = 7 t Z Y  .q.k.v.b.B.B.B.B.B.B.B.B.B.B.B.B.",
"B.B.B.B.B.B.B.B.B.B.B.B.y y p M ` ( T K c B.B.B.B.B.B.B.B.9 t Z Y ( &.g.n.m.h.B.B.B.B.B.B.B.B.B.B.B.",
"B.B.B.B.B.B.B.B.B.B.B.B.y y j ^ ` ` Y B B.B.B.B.B.B.B.B.B.B.z Z Y ( O.q.v.M.M.B.B.B.B.B.B.B.B.B.B.B.",
"B.B.B.B.B.B.B.B.B.B.B.B.y y ~  .` ^ c B.B.B.B.B.B.B.B.B.B.B.B.B.E ( o.,.l.M.N.B.B.B.B.B.B.B.B.B.B.B.",
"B.B.B.B.B.B.B.B.B.B.B.y y U  . .T B.B.B.B.B.B.B.B.B.B.B.B.B.B.B.B. .o.;.7.M.M.B.B.B.B.B.B.B.B.B.B.B.",
"B.B.B.B.B.B.B.B.B.B.B.y x _  .U B.B.B.B.B.B.B.B.B.B.B.B.B.B.B.B.B.B.B.;.>.i.M.c.B.B.B.B.B.B.B.B.B.B.",
"B.B.B.B.B.B.B.B.B.B.B.p ~  .B.B.B.B.B.B.B.B.B.B.B.B.B.B.B.B.B.B.B.B.B.B.:.4.v.N.B.B.B.B.B.B.B.B.B.B.",
"B.B.B.B.B.B.B.B.B.B.B.~ _ B.B.B.B.B.B.B.B.B.B.B.B.B.B.B.B.B.B.B.B.B.B.B.B.;.q.m.B.B.B.B.B.B.B.B.B.B.",
"B.B.B.B.B.B.B.B.B.B.P B.B.B.B.B.B.B.B.B.B.B.B.B.B.B.B.B.B.B.B.B.B.B.B.B.B.B.B.9.B.B.B.B.B.B.B.B.B.B.",
"B.B.B.B.B.B.B.B.B.B.B.B.B.B.B.B.B.B.B.B.B.B.B.B.B.B.B.B.B.B.B.B.B.B.B.B.B.B.B.B.B.B.B.B.B.B.B.B.B.B."
};
