/* XPM */
static char *f78ea9ca5cf44e6ce526b828cd570f0dUCg0mtK0UUIdfcJs[] = {
/* columns rows colors chars-per-pixel */
"50 50 181 2 ",
"   c None",
".  c #560F06",
"X  c #590E06",
"o  c #5B1107",
"O  c #5A1608",
"+  c #631407",
"@  c #631308",
"#  c #6C150A",
"$  c #641A08",
"%  c #6E180A",
"&  c #6A1807",
"*  c #73140B",
"=  c #7C150C",
"-  c #73190A",
";  c #79190C",
":  c #641813",
">  c #741B14",
",  c #721710",
"<  c #5D2709",
"1  c #67240A",
"2  c #7A240B",
"3  c #68350E",
"4  c #7E310B",
"5  c #772519",
"6  c #773C10",
"7  c #501C3D",
"8  c #7A0F25",
"9  c #792D26",
"0  c #7B322D",
"q  c #7D3630",
"w  c #6A2B25",
"e  c #485F0C",
"r  c #6D4811",
"t  c #7B5717",
"y  c #714812",
"u  c #4C660E",
"i  c #476E0E",
"p  c #46750F",
"a  c #49740F",
"s  c #47780F",
"d  c #4E6E10",
"f  c #4C7D11",
"g  c #487710",
"h  c #527711",
"j  c #7B6418",
"k  c #7F741B",
"l  c #7D413C",
"z  c #551F46",
"x  c #50204F",
"c  c #4F2050",
"v  c #84160D",
"b  c #8B170F",
"n  c #84180E",
"m  c #8A190F",
"M  c #8D1A10",
"N  c #931C12",
"B  c #991E13",
"V  c #862D0C",
"C  c #8D330B",
"Z  c #87310B",
"A  c #993D0C",
"S  c #942815",
"D  c #873313",
"F  c #9C3D1B",
"G  c #973B1A",
"H  c #822D13",
"J  c #851128",
"K  c #803E3A",
"L  c #9D420D",
"P  c #9E411D",
"I  c #9B5F1F",
"U  c #825717",
"Y  c #AA4C0E",
"T  c #A6490D",
"R  c #B14E0D",
"E  c #B5540F",
"W  c #B9560F",
"Q  c #BB5911",
"!  c #846A1C",
"~  c #8B751F",
"^  c #A2670E",
"/  c #82423D",
"(  c #917C22",
")  c #AC772C",
"_  c #C05F12",
"`  c #C36112",
"'  c #CE6E2E",
"]  c #CF7232",
"[  c #D97A36",
"{  c #D77F3B",
"}  c #DC7E39",
"|  c #D77734",
" . c #AD0D52",
".. c #B50F58",
"X. c #BA0F5A",
"o. c #BC115E",
"O. c #BE1262",
"+. c #C31466",
"@. c #C6156A",
"#. c #C9166E",
"$. c #CC1771",
"%. c #CE1873",
"&. c #874B46",
"*. c #8A504C",
"=. c #8D5450",
"-. c #945E5A",
";. c #90615D",
":. c #976B67",
">. c #9C7471",
",. c #548514",
"<. c #5A8E16",
"1. c #578915",
"2. c #7B8A1B",
"3. c #84841E",
"4. c #84911F",
"5. c #9A8B27",
"6. c #969C27",
"7. c #9D972A",
"8. c #B68833",
"9. c #BE9639",
"0. c #BC9839",
"q. c #B99334",
"w. c #A3A72D",
"e. c #B9AC37",
"r. c #B4B435",
"t. c #BDBA3A",
"y. c #BEB539",
"u. c #C09910",
"i. c #CBA615",
"p. c #CEAA18",
"a. c #CDA817",
"s. c #D1AB16",
"d. c #D2AE19",
"f. c #D7B017",
"g. c #D6B119",
"h. c #DAB51B",
"j. c #DEBA1D",
"k. c #E0BE1F",
"l. c #DD843E",
"z. c #E2843D",
"x. c #C1BE3D",
"c. c #C6C43F",
"v. c #E1C020",
"b. c #DF8640",
"n. c #E18740",
"m. c #E48B43",
"M. c #E88E45",
"N. c #E99047",
"B. c #EB944B",
"V. c #EB984E",
"C. c #E79047",
"Z. c #CEBB45",
"A. c #CECB47",
"S. c #D2C54A",
"D. c #D5CB4B",
"F. c #D1CC45",
"G. c #D6D14C",
"H. c #D9D44D",
"J. c #DDD653",
"K. c #DED956",
"L. c #492D86",
"P. c #4D308D",
"I. c #50338E",
"U. c #543693",
"Y. c #573897",
"T. c #5B3B9B",
"R. c #583897",
"E. c #603FA0",
"W. c #6140A1",
"Q. c #AE918E",
"!. c #AD9492",
"~. c #A88A87",
"^. c #BCA8A6",
"/. c #C5B8B7",
"(. c #D4CDCD",
"). c #D0C7C7",
"_. c #DCDCDD",
"`. c #D7D4D4",
"'. c #CAC3C2",
"]. c #E0DFDF",
"[. c #E2E3E3",
/* pixels */
"                                                                                                    ",
"                              u.i.                                                                  ",
"                              s.d.d.                                                                ",
"                            d.g.f.h.d.                                '                             ",
"                            h.h.g.k.j.                              } [                             ",
"                          d.k.h.s.k.j.g.                        z.m.z.z.{                           ",
"                          h.k.j.d.j.k.j.p.                    l.m.m.b.M.b.                          ",
"                        i.j.j.j.d.j.k.j.d.                      z.z.m.N.n.                          ",
"                          s.d.h.d.j.v.j.p.                n.m.n.[ } M.B.m.                          ",
"                          d.h.j.g.h.k.k.h.              { N.B.B.n.n.B.B.M.                          ",
"                        i.j.k.k.g.h.k.v.j.s.          l.M.B.V.N.b.M.V.V.m.                          ",
"L.L.P.                    g.k.k.g.g.k.v.k.g.          M.B.V.B.n.n.B.V.B.b.                          ",
"P.P.U.Y.I.                g.j.k.h.g.k.j.j.d.        n.B.V.V.N.l.N.V.V.N.l.                          ",
"P.U.I.T.T.U.              s.h.k.h.d.h.p.          l.B.V.V.B.m.n.N.N.M.n.                            ",
"  L.P.I.T.T.Y.              h.k.j.d.h.g.i.        l.M.B.V.N.l.C.N.n.                                ",
"P.U.T.U.U.T.U.L.            g.k.j.d.j.j.d.            z.N.n.n.B.V.N.m.                        o.X. .",
"  R.W.T.Y.U.T.T.Y.            j.j.d.h.j.p.        b.N.N.M.b.M.B.B.N.n.                +.#.#.@.+.O...",
"    T.W.T.Y.U.T.T.U.          d.h.g.h.j.p.        n.B.B.m.n.B.B.M.              o.#.%.%.#.+.+.+.O.  ",
"    I.T.T.T.U.U.T.T.            f.g.g.h.i.        b.B.N.b.M.C.m.          +.#.#.#.$.$.@.+.o.X.O.    ",
"          L.Y.Y.U.Y.Y.          a.f.d.h.          m.N.n.n.m.b.          @.%.%.%.#.+.#.#.%.+.        ",
"            U.Y.U.U.U.U.          s.s.f.          z.m.l.n.l.          @.$.#.@.+.@.$.%.$.@.          ",
"                  P.P.P.P.          i.s.          z.z.z.}         O.@.@.@.@.@.O.O.#.#.              ",
"                    7 c c z :     4 ^ ^           ] [ [         o.+.o.O.+.+.O.                      ",
"                    . . o @ # # - - - % % @ o X . 2 H 2 % % % J J J 8                               ",
"                    # # # # * = ; ; = * # @ X X o @ @ - - - - # $ X X                               ",
"          n m m N B M n b b b N M B N b = # o # n n n M n = n = = n n b m                           ",
"          M M M B B S M b N N b M N B B b @ . ; N M M N B M m M N b N N N n n                       ",
"          m N M M N S S G F F G G P P F C $ o - M m M S N M M N b n N N N n v                       ",
"                  ( e.Z.Z.S.D.D.D.D.D.S.y.j O j q.0.0.0.0.0.9.8.8.) I D = n n                       ",
"                  6.D.K.K.K.K.K.K.K.K.J.F.3.< 6.G.K.K.K.K.K.K.K.K.H.t.2.                            ",
"                  4.t.G.K.K.K.K.K.J.J.J.r.r O k c.H.J.K.K.K.K.K.J.D.w.                              ",
"                    2.7.x.D.G.G.G.A.t.5.y $ + < ! r.A.G.J.J.J.G.x.w.                                ",
"                      O 3 t ! ~ ! U 6 1 @ C A o o 3 t ( 5.5.( ! 3                                   ",
"                      . o o @ @ % - * # C R E 2 o @ # & & + o X o                                   ",
"                      X X o @ # % - 2 C E E W L & + & - # @ o X o                                   ",
"                      . o o o @ # C W ` _ W Q ` E C % # # @ o X .                                   ",
"                      . o X o # - ; C L Y T Y T A V - # # o @ X .                                   ",
"                      . @ * = = n b m n * & - ; = = n n = # @ X .                                   ",
"                      X * * # 0 0 5 > n v v v v * * > > # * v o                                     ",
"                      # = o -.(.(.)./.~.;.&.-.>.Q.^.^.^.>.: = #                                     ",
"                      * * @ !.[.].[.[._.[._.[._.[.[._.[.'.w * #                                     ",
"                        * # l ^.^.(._.`.].].]._.`.`./.!.&.# = @                                     ",
"                        o * * , 5 0 K &.*.=.=.&./ q 5 , * = # .                                     ",
"                              # 1 1 $ $ O & & % * * * * * o .                                       ",
"                              ,.1.h a d d d a u e u u                                               ",
"                              1.1.f f <.<.,.<.,.p g g                                               ",
"                              f f f f f 1.f ,.,.p p g                                               ",
"                                a f a p f f s s p p g                                               ",
"                                  f g g f ,.p f p i                                                 ",
"                                    i     f p p                                                     "
};
