/* XPM */
static char *cbd7a53c026b4497dba252758b160728Kbav7WwEzIMUHJHT[] = {
/* columns rows colors chars-per-pixel */
"64 64 192 2 ",
"   c None",
".  c #170A04",
"X  c #1B0D04",
"o  c #2B1B0D",
"O  c #311E0D",
"+  c #33200E",
"@  c #3A230E",
"#  c #3E2A16",
"$  c #3A2612",
"%  c #422C15",
"&  c #473016",
"*  c #4E3215",
"=  c #4A341B",
"-  c #4A351C",
";  c #51361A",
":  c #563C1D",
">  c #5C3D1B",
",  c #533517",
"<  c #493621",
"1  c #543E23",
"2  c #6A451B",
"3  c #5D4831",
"4  c #664823",
"5  c #6A4B24",
"6  c #654B2C",
"7  c #734E23",
"8  c #704F28",
"9  c #6F512A",
"0  c #735127",
"q  c #7E5827",
"w  c #73532C",
"e  c #7B562A",
"r  c #7E5A2E",
"t  c #725736",
"y  c #795730",
"u  c #7D5B33",
"i  c #765932",
"p  c #845D2E",
"a  c #8C5F2C",
"s  c #815D30",
"d  c #90642E",
"f  c #846134",
"g  c #8D6535",
"h  c #8F6837",
"j  c #85653C",
"k  c #8A673B",
"l  c #8D693D",
"z  c #986730",
"x  c #966C34",
"c  c #9A6C34",
"v  c #936B3A",
"b  c #9E7037",
"n  c #9C723B",
"m  c #A3743C",
"M  c #A6793F",
"N  c #AC7C3F",
"B  c #A17337",
"V  c #8C6B42",
"C  c #946F41",
"Z  c #9B7544",
"A  c #9E7845",
"S  c #92724A",
"D  c #9E7A4B",
"F  c #967347",
"G  c #9A7B51",
"H  c #A37944",
"J  c #AB7D43",
"K  c #A37C4B",
"L  c #A97E4A",
"P  c #B17F45",
"I  c #A27D51",
"U  c #B4823C",
"Y  c #9F8159",
"T  c #AD814A",
"R  c #B28143",
"E  c #B88544",
"W  c #BE8A45",
"Q  c #B38449",
"!  c #B78A4F",
"~  c #BB8A4C",
"^  c #B8864B",
"/  c #A68152",
"(  c #AA8454",
")  c #AD8B57",
"_  c #B28752",
"`  c #B58B54",
"'  c #BB8E53",
"]  c #B48D59",
"[  c #BC9355",
"{  c #BC945B",
"}  c #AB8D62",
"|  c #B79360",
" . c #C38E4D",
".. c #C48F43",
"X. c #C6904C",
"o. c #CA954C",
"O. c #CC994E",
"+. c #C49253",
"@. c #C89654",
"#. c #CD9A55",
"$. c #C3955A",
"%. c #CB9759",
"&. c #C6995E",
"*. c #CA9A5C",
"=. c #D29C54",
"-. c #D19D5B",
";. c #D89E5B",
":. c #DC9C56",
">. c #CEA05F",
",. c #D3A15D",
"<. c #DCA25D",
"1. c #D9A85F",
"2. c #D5A256",
"3. c #E2A55D",
"4. c #E2A95E",
"5. c #C79B60",
"6. c #CA9E63",
"7. c #C19D6A",
"8. c #CDA264",
"9. c #CEA669",
"0. c #CFA96C",
"q. c #D5A362",
"w. c #DCA562",
"e. c #DDAA64",
"r. c #D4A76D",
"t. c #D2A96D",
"y. c #DCAC6C",
"u. c #D1A965",
"i. c #DDB46E",
"p. c #CFAB71",
"a. c #C8A373",
"s. c #D6AA71",
"d. c #DDAF72",
"f. c #D7B573",
"g. c #DBB372",
"h. c #DDB877",
"j. c #DEB579",
"k. c #E3A763",
"l. c #E4AC65",
"z. c #E9AB64",
"x. c #E3AE6B",
"c. c #E9AE6A",
"v. c #ECB167",
"b. c #E4B16C",
"n. c #EBB36C",
"m. c #EFB86C",
"M. c #F1B56D",
"N. c #E4B373",
"B. c #EBB573",
"V. c #E1BA77",
"C. c #EDB975",
"Z. c #E1B57A",
"A. c #E5BA7D",
"S. c #E4BB7D",
"D. c #E9BC7D",
"F. c #EDBC7B",
"G. c #F1B773",
"H. c #F1BB75",
"J. c #F1BD7B",
"K. c #EDC077",
"L. c #ECC27E",
"P. c #F4C17D",
"I. c #F9C47D",
"U. c #F8C67A",
"Y. c #E6BC81",
"T. c #E3BC82",
"R. c #EBBE82",
"E. c #F2BF81",
"W. c #E7C184",
"Q. c #EAC085",
"!. c #EBC183",
"~. c #EDC984",
"^. c #EDC689",
"/. c #EECA8B",
"(. c #F5C384",
"). c #F9C583",
"_. c #F4CA87",
"`. c #FACA86",
"'. c #F6C689",
"]. c #F9C78A",
"[. c #F6CA8B",
"{. c #F9CB8C",
"}. c #FCD087",
"|. c #F5D48E",
" X c #FBD08E",
".X c #FACD91",
"XX c #F5D393",
"oX c #FBD295",
"OX c #FBD599",
"+X c #FCDA9C",
"@X c #FCD991",
"#X c #FCD9A0",
/* pixels */
"    j v g g g g p                                                                                             p h g k g v j     ",
"    a.s.t.t.r.s.` 2                                                                                         2 ` s.r.t.r.t.a.    ",
"    I ( / / / ( Z 7 a z z c m m J Q Q P R J B n b J J N N U E E E E R N N J J m c b J P P ^ Q J m m c z z a 0 n ( / I ( ( I     ",
"n n A / j u / ` H b U #.-.<.<.k.x.d.Y.T.Y.A.d.w.d.N.b.b.b.b.b.b.b.b.b.x.b.y.N.d.w.g.A.R.Y.Y.N.y.e.<.<.;.#.U n A ` L u j ( D n n ",
"i V r 9 t 6 5 f D j e M Q ^ ' X.+.$.6.6.6.6.$.! ' $.@.%.@.%.*.@.@.*.%.@.#.@.$.[ ` $.5.6.6.6.$.%.X.' ~ Q m q j D f 6 6 t 0 p l i ",
"  6 = : u t : = 1 ; 4 *.b.b.N.N.R.Y.!.'.R.R.N.N.N.A.F.F.C.K.K.V.C.L.K.C.F.F.A.N.b.A.A.R.'.R.D.A.N.N.b.y.*.4 , 1 = ; t V 1 = 6   ",
"  4 # 1 t - 9 = < $ f *.g.Z.D.S.Y.R.R.Y.Y.A.x.d.A.A.Y.!.D.D.W.W.!.W.Y.A.!.Y.S.S.d.x.A.Y.Y.Q.Q.Y.S.Y.Z.d.8.f $ < = 0 - 9 : # 3   ",
"  - o & 9 e e # o o 4 0 8 w w e y u s u r s e w u g g f j V V S S j V k g f g r w e s s u u u y e w w 0 0 4 o o % w e w & o -   ",
"  o o t s b e 5 * @ 0 Q M x b H J P L J P ^ +.6.q.6.) S u k j j j j l u S ` 5.u.6.+.^ J L P P K m b v M Q 8 O * 7 e n u i O o   ",
"    % 8 s H e s > : d @.q.r.N.N.R.R.R.N.y.j.j.7.D j S Z C Z K Z Z K Z V F S j D 7.j.N.y.N.R.R.Y.N.N.u.<.%.d > > q w J f 5 %     ",
"      P $.] P L p @ b O.w.C.J.(.'.'.B.N.Z.] j D { K C L ] $.%.*.%.%.$.` T C D { D k ] j.N.B.].].(.F.B.k.o.b @ s M ~ ' ' L       ",
"      H 5.6.+.H q 2 R =.3.b.F.E.J.x.b.5.l _ _ K $.6.r.Z.Z.j.w.r.r.w.j.S.N.r.6.$.K ` _ k 6.b.l.J.(.E.c.<.:.P 2 s H $.6.5.H       ",
"      Z..X.XE.E.P B =.<.k.B.J.C.B.B.] K K ' 8.Z.Y.j.e.6.v v J *.*.J v v 6.r.j.Q.Z.8.` H H ] B.N.B.E.B.k.;.%.B P F.{.{.'.N.      ",
"      J.E.E..XE.%. .k.<.k.G.J.B.N.A k 5.%.g.^.T.s.r.` k , O O * * O O , v ` r.s.T./.N.$.&.k D N.B.F.G.k.<.k.X.-.E.].E.'.R.      ",
"      E.E..X{.E.w.;.c.;.z.M.B.D.L Q J *.R.!.N.t./ 3 + X X X X X X X X X X + 3 Y r.d.!.(.*.J ^ L R.G.M.z.<.c.;.w.E..X'.(.E.      ",
"      (.{.{.'.E.w.:.k.:.z.z.J.$.v T q.J.d.N.| 3         . . . . . . . .         3 | x.N.J.q.T v $.J.z.3.:.k.;.w.E.E..X[.(.      ",
"      (.{..XJ.C.w.;.c.3.z.G.6.5._ 6.[.N.b.G #                                     # G y.N.[.6._ %.6.G.z.3.c.;.q.H.J..X{.(.      ",
"      !.[.{.(.J.k.w.c.4.G.J.P D 6.[.Q.B.S @                                         @ S B.Q.'.5.D L J.J.k.c.;.k.J.(.[.[.L.      ",
"      F.J.P.P.J.w.;.z.c.(.q.6._ F./.Y.} @                                             @ } Y./.F._ 6.w.(.c.z.q.k.J.P.P.J.F.      ",
"      F.(._.(.P.x.w.c.G.J.P ( y.'.y.s.1                                                 4 p.b._.d.I P F.G.c.w.x.(.(.(.(.F.      ",
"      E.].{.].'.B.k.B.c.b.,.' (.Y.b.j                                                     k N.D.(.' 6.l.c.B.k.b.].'.{.].(.      ",
"      ].[.[.'.E.N.x.F.k.@.&.g.XXL.t.>                                                     > 0.D.oXN.5.@.l.J.x.b.E.E..X'.(.      ",
"      E.].].'.E.B.x.R.x.W J !..XL.)                                                         ) L.[.!.R W y.R.x.B.E.{.].'.(.      ",
"      .X.X.X.X].F.x.J.N. .*.[./.!.Z                                                         F ~./.[.*.X.N.J.b.J.]..X.X.X.X      ",
"      .X.X.X.X'.B.d.E.C.' %..X/.~.n                                                         n Q./..X%.' C.E.x.B.]..X.X.X.X      ",
"      '..X.X.X].B.w.B.B.Q *._.Q.T.T                                                         T T.Y.'.6.Q B.B.w.B.{..X.X.XE.      ",
"      ]..X].'.'.b.%.%.>.[ $.8.8.6.6.t.                                                    t.6.5.7.8.$. .*.-.@.N.E.]..X.X].      ",
"      '..X.X(.(.y.v v v 0 r r r r f                                                         f r s s s 8 v v v y.E.]..X.X'.      ",
"      '..X{.].E.e.m N e q z x x x n                                                         n x c c x q q J m e.J.].{..X'.      ",
"      [..X.X'.(.b. .o.z U ..2.#.o.                                                            o.#.=...U c X.W N.'.{..X.X.X      ",
"    E.'.]..X].(.b. .o.E O.=.l.b.1.                                                            1.b.l.2.O.W X.X.x.E.]..X].'.E.    ",
"    F.(.[..X].E.b.w.k. .@.~ R R ' [                                                         [ [ R R ~ +...k.<.N.E.]..X[.E.R.    ",
"    J.E.`.oXoX].C.l.l.N +.T g d H [                                                         [ H d g T +.J z.l.B.].oXoX{.(.D.    ",
"    J.E.).{..X].B.n.n.p   , e N p >                                                         > p J e ;   p m.n.B.(..X{.(.J.J.    ",
"    J.E.{.{.].J.B.b.F.R     B ~ b 2                                                         2 m ~ B     J J.b.B.(.).{.`.J.J.    ",
"    J.G.).].].].F.n.).l.    H.}.K.                                                            K.}.K.    l.P.n.F.].].].(.J.J.    ",
"    H.G.I.].].].B.z.P.n.    m.}.I.                                                            U.`.m.    m.I.z.B.].].].I.G.G.    ",
"    c.G.).{.].E.B.l.P.C.    M.`.{.                                                            `.`.m.    G.J.c.B.E.].].).G.c.    ",
"    n.H.E.].).J.c.n.H.m.    K.{.{.                                                            {.`.K.    m.H.B.b.H.).].).H.B.    ",
"    J.E.).].].J.b.C.[.B.    ).oX X                                                             X@X(.    B.[.G.b.J.].].).J.J.    ",
"    J.J.).{.].(.C.J..XP.    `.+XOX                                                            oX#X`.    J..XJ.C.E.].{.).E.J.    ",
"    B.H.).].].(.C.G.`.H.    `.+XoX                                                            oX+X`.    J.`.B.G.)..X].).J.G.    ",
"    P.[.{.{..X(.B.v.I.H.    {.+X}.                                                            }.+X}.    H.I.v.B.E..X]..X{.J.    ",
"    P.'..X.X.X].J.v.U.H.    `.@X XI.                                                        P. X@X`.    H.U.c.C.]..X.X.X(.I.    ",
"    H._.oXOX{.(.F.v.H.G.    `.+X{.P.                                                        J.{.+X`.    H.U.v.H.(.{.OXoX(.J.    ",
"    C.(..XOX].E.C.v.I.I.    `.+X XJ.                                                        J. X+X`.    H.U.v.H.J.[.oX.X`.C.    ",
"    J.).{.(.(.J.B.c.U.P.    `.+X{.F.                                                        J.{.#X}.    P.P.v.B.J.(.[.{.(.J.    ",
"    F.(.{.oX.X).C.m.U.P.    `.OXoXK.                                                        H.oX+X`.    P.I.n.F.(..XoX{.(.C.    ",
"    J.(.{.oXoX[.F.m.U.H.    `.OX{.B.                                                        C.{.OX`.    F.U.m.F.[..XoX XI.J.    ",
"    (.).{..X.X{.J.n.P.H.    I.OX'.C.                                                        B.).oX).    K.I.v.F.[..X.X{.).(.    ",
"    (.{.OXoX.X{.F.b.I.P.    I.oX`.F.                                                        C.{. X).    K.I.n.F.{..XoXOX.X(.    ",
"    {.oX.XoXoX{.J.B.).P.    `.OX{.F.                                                        F.{.OX`.    P.I.C.P.{.oXoX.X.X{.    ",
"    '.{..XoXOX].J.H.).K.    {.+X{.C.                                                        C.{.+X`.    K.).C.F.]..XOX.X{.'.    ",
"    {.oX+X#XOX{.F.K.).C.    `.OX_.C.                                                        C.[.OX[.    H.`.C.J..XOX#X+X.X{.    ",
"    {..XOX#X#X.XP.H.I.C.    [.+X[.D.                                                        C.{.+X`.    m.(.H.P..X#X+XOX.X{.    ",
"    {..X.X.X.X.XJ.H.I.n.    _.OX[.B.                                                        V.[.OX_.    n.I.H.J.].OX.XoX{..X    ",
"    {.{.{.{..X].C.G.P.1.    ). X(.B.                                                        B.(. XI.    4.P.H.F.]..X X{. X{.    ",
"    _.{.{.`.{.I.m.m.I.v.    I.OX_.n.                                                        b._.OX).    b.I.m.n.I.{.{.{.`.[.    ",
"    P.{.{.`.I.H.n.v.H.z.    P.OX(.N.                                                        N.).OXI.    z.H.v.v.G.I.).{.{.(.    ",
"    H.).{.`.`.m.z.3.v.4.    (.OX{.N.                                                        N.{.XX(.    4.v.4.v.H.).`.{.P.H.    ",
"    (.{.OX+X+X[.K.v.m.b.    [.+X.XN.                                                        N.|.+X[.    b.m.v.K.`.+X#XOX{.(.    ",
"    8.t.0.9.9.*.&.@.v.,.  $.h.W.f.[                                                         [ h.W.h.$.  ,.v.@.{ >.9.9.9.t.8.    ",
"  h.i.h.f.f.f.i.u.[ 2.e.  K./.~.~.f.                                                        f.~././.V.  e.2.[ u.f.i.f.f.h.f.D.  ",
"#XXX|.|././.|.|.@X~.2.e.K.U.@X+X+X|.                                                        |.+X+X@XU.K.e.2.~.@X|./././.|.XXXX+X"
};
