/* XPM */
static char *result[] = {
/* columns rows colors chars-per-pixel */
"50 50 180 2 ",
"   c #230D0D",
".  c #351D0D",
"X  c #210D10",
"o  c #3E220C",
"O  c #412308",
"+  c #482808",
"@  c #4F300E",
"#  c #57350E",
"$  c #662D0B",
"%  c #66250B",
"&  c #7C2C07",
"*  c #7D2D0C",
"=  c #623807",
"-  c #603708",
";  c #66390C",
":  c #75340D",
">  c #7B3511",
",  c #763A10",
"<  c #7A4707",
"1  c #7E4908",
"2  c #84340C",
"3  c #873A0E",
"4  c #8C3C0E",
"5  c #933E0B",
"6  c #803715",
"7  c #853D12",
"8  c #893C11",
"9  c #84440B",
"0  c #8D440B",
"q  c #8B490F",
"w  c #95410C",
"e  c #98430B",
"r  c #914A0B",
"t  c #8C560A",
"y  c #8E5C0B",
"u  c #9E510F",
"i  c #94580C",
"p  c #9B5C0A",
"a  c #814111",
"s  c #8B4412",
"d  c #8F491A",
"f  c #944513",
"g  c #964B13",
"h  c #9A4D11",
"j  c #964E1B",
"k  c #9A4F18",
"l  c #8B5C1D",
"z  c #955213",
"x  c #9C5215",
"c  c #9E5B11",
"v  c #9D531B",
"b  c #995D1D",
"n  c #A04E08",
"m  c #A3530F",
"M  c #A55E0B",
"N  c #A25513",
"B  c #A35B15",
"V  c #AA5A10",
"C  c #A25719",
"Z  c #A55A1D",
"A  c #AA5E1B",
"S  c #95600B",
"D  c #986109",
"F  c #996B16",
"G  c #926918",
"H  c #9F691A",
"J  c #A6640F",
"K  c #AB660E",
"L  c #AC6C0B",
"P  c #B2660E",
"I  c #B36D0C",
"U  c #AE7109",
"Y  c #B5730E",
"T  c #B9760E",
"R  c #B5790D",
"E  c #BA780E",
"W  c #A66213",
"Q  c #A96214",
"!  c #AC6912",
"~  c #AC631C",
"^  c #A8691D",
"/  c #B46D14",
"(  c #BB6E12",
")  c #B2691B",
"_  c #B67313",
"`  c #B97413",
"'  c #B67815",
"]  c #BA7A12",
"[  c #BD7F18",
"{  c #9E5620",
"}  c #A55D23",
"|  c #A95F22",
" . c #A06423",
".. c #AC6324",
"X. c #AF6826",
"o. c #B66C25",
"O. c #B26A2A",
"+. c #B57422",
"@. c #BD752A",
"#. c #C17716",
"$. c #C47F16",
"%. c #B7811C",
"&. c #BC8A1E",
"*. c #BA8523",
"=. c #BD8924",
"-. c #C1810A",
";. c #CA870E",
":. c #C38A0F",
">. c #C88F0F",
",. c #D39A0F",
"<. c #C38315",
"1. c #C88514",
"2. c #C68812",
"3. c #CD8B14",
"4. c #CA8318",
"5. c #CC8D1B",
"6. c #D38416",
"7. c #D28D15",
"8. c #DC8917",
"9. c #D58619",
"0. c #D38D18",
"q. c #DE8B19",
"w. c #CE9617",
"e. c #C99816",
"r. c #CE931D",
"t. c #CE9A1A",
"y. c #C49114",
"u. c #D59215",
"i. c #DA9516",
"p. c #D39A12",
"a. c #DA9C16",
"s. c #D59319",
"d. c #DC941B",
"f. c #D79918",
"g. c #DA9C1A",
"h. c #E38E17",
"j. c #E38F18",
"k. c #E39317",
"l. c #E69917",
"z. c #E99A17",
"x. c #E5941B",
"c. c #E89318",
"v. c #E59A1B",
"b. c #EA9A18",
"n. c #DDA316",
"m. c #DDA815",
"M. c #DCA31A",
"N. c #DFAA1A",
"B. c #E3A317",
"V. c #E3AC16",
"C. c #E5A41B",
"Z. c #E2AB19",
"A. c #EAAC1A",
"S. c #F0AF18",
"D. c #E5B115",
"F. c #EBB717",
"G. c #EFBB17",
"H. c #E5B119",
"J. c #EBB119",
"K. c #EDBC1C",
"L. c #F2BF17",
"P. c #F1B418",
"I. c #F1BD18",
"U. c #C28D25",
"Y. c #C69326",
"T. c #C89526",
"R. c #C59228",
"E. c #D29320",
"W. c #DA9120",
"Q. c #E39621",
"!. c #E39C22",
"~. c #D0A137",
"^. c #E7A222",
"/. c #E9AE21",
"(. c #E1B120",
"). c #ECB421",
"_. c #ECBC22",
"`. c #F2C117",
"'. c #F3C018",
"]. c None",
/* pixels */
"].].].].].].].].].].].].].].].].].].].].].].].].].].].].].].].].].].].].].].].].].].].].].].].].].].",
"].].].].].].].].].].].].].].].].].].].].].].].].].].].].].].].].].].].].].].].].].].].].].].].].].].",
"].].].].].].].].].].].].].].].].].].].].].].].].].].].].].].].].].].].].].].].].].].].].].].].].].].",
"].].].].].].].].].].].].].].].].].].].].].].].].].].].].].].].].].].].].].].].].].].].].].].].].].].",
"].].].].].].].].].].].].].].].].].].].].].].].].].].].].].].].].].].].].].].].].].].].].].].].].].].",
"].].].].].].].].].].].].].].].].].].].].].].].].].].].].].].].].].].].].].].].].].].].].].].].].].].",
"].].].].].].].].].].].].].].].].].].].].].].].].].].].].].].].].].].].].].].].].].].].].].].].].].].",
"].].].].].].].].].].].].].].].].].].].].].].].].].].].].].].].].].].].].].].].].].].].].].].].].].].",
"].].].].].].].].*.R.R.*.R.Y.*.R.R.*.Y.T.*.U.R.*.U.T.*.=.Y.*.=.Y.U.=.R.U.=.Y.R.*.R.R.=.].].].].].].].",
"].].].].].].].].' ] ` Y ] T Y T T Y T T Y T T _ T ] T T T T ] T T T T T T T ` Y ] ' ' ].].].].].].].",
"].].].].].].].].f.2.p.i.2.s.i.1.f.i.3.3.s.7.3.i.3.3.0.7.3.i.7.3.f.u.2.7.s.2.7.s.2.3.g.].].].].].].].",
"].].].].].].].].M.3.7.f.3.7.i.7.s.f.u.3.i.7.3.i.s.3.s.i.;.f.i.3.f.i.7.u.i.3.u.f.3.3.W.].].].].].].].",
"].].].].].].].~.M.g.7.M.a.7.g.n.7.a.n.u.f.n.7.s.B.s.s.B.a.s.n.a.7.M.a.6.B.g.3.M.g.7.M.].].].].].].].",
"].].].].].].].+.` ` / ( _ / ` ` ( _ _ / _ Y / _ ' _ / Y _ / _ _ / ` ` / ` _ / _ _ / ' +.].].].].].].",
"].].].].].].].b 0 r 0 9 0 0 r 0 w 9 9 0 5 0 0 0 0 9 4 0 r 9 0 0 9 r 0 r 0 0 0 4 0 r s  .].].].].].].",
"].].].].].].].].8 8 2 2 2 f 4 2 * 4 4 4 2 2 2 2 2 2 & 2 4 * 2 f 5 2 * 2 f 4 2 2 8 5 8 ].].].].].].].",
"].].].].].].].].w w e w 5 e 5 w 5 5 e w e 5 5 5 n n u 5 5 5 5 e e w w w w w 5 w e e e ].].].].].].].",
"].].].].].].].].] E E T T E T T T T J L L J Q L _ E Y K J J L P J T T T E T E T E E ' ].].].].].].].",
"].].].].].].].].H.D.D.D.D.D.H.D.D.y.$ z s : q p I w.L p 3 : k 0 ; f.D.D.D.D.D.D.D.H.H.].].].].].].].",
"].].].].].].].].K.F.Z.N.Z.N.n.Z.G.e.% f m M p < - ; = 1 p M m 7 $ M.F.Z.Z.N.Z.N.Z.F._.].].].].].].].",
"].].].].].].].]._.V.[ B W W / 3.A.e.> V I t O     X     + D I m , n.A.<./ Q Q Q <.H._.].].].].].].].",
"].].].].].].].].A.C.W 8 4 5 x 1.C.5.a I y . ].].].].].].].o D K a f.B./ h 8 0 8 ! C./.].].].].].].].",
"].].].].].].].].C.k.` C C B C ] l.4.r U @ ].].].].].].].].].# L q 0.k./ x C N N ] l.^.].].].].].].].",
"].].].].].].].].Q.h.q.8.8.8.8.8.h.4.L i ].].].].].].].].].].].D J 9.h.q.q.0.8.q.8.j.Q.].].].].].].].",
"].].].].].].].].d.8.8.q.8.q.q.q.q.9.R G ].].].].].].].].].].].F E 6.q.q.q.q.q.q.q.8.W.].].].].].].].",
"].].].].].].].].` Y ` Y Y T Y T ` U i l ].].].].].].].].].].].l i Y R Y Y Y Y T T T ' ].].].].].].].",
"].].].].].].].].p.p.p.p.w.,.,.,.p.:.p ].].].].].].].].].].].].H D >.w.,.,.p.w.,.,.,.t.].].].].].].].",
"].].].].].].].].K.L.G.Z.5.5.N.`.`.m.U ].].].].].].].].].].].].].U D.`.`.V.s.5.g.G.G._.].].].].].].].",
"].].].].].].].]._.'.f.v Z d J G.`.m.U ].].].].].].].].].].].].].U m.`.F.z j { > w.'._.].].].].].].].",
"].].].].].].].].'.G.! > { } x m.`.m.U ].].].].].].].].].].].].].U D.`.n.7 O...> ! F._.].].].].].].].",
"].].].].].].].]._.H.^ v g { ..f.`.m.U ].].].].].].].].].].].].].U V.'.f.X...k v / H._.].].].].].].].",
"].].].].].].].].K.Z.V C } @.Z &.`.m.Y ].].].].].].].].].].].].].U D.K.<...@.| ..Q Z._.].].].].].].].",
"].].].].].].].].K.N.C o.~ C g $.L.n.U ].].].].].].].].].].].].].U V.G.' s A ) o.A B._.].].].].].].].",
"].].].].].].].].K.a.s C k N Z 5.I.n.Y ].].].].].].].].].].].].].U V.I.[ v A Z Z s n._.].].].].].].].",
"].].].].].].].].).a.h h C x h 0.P.a.U ].].].].].].].].].].].].].U B.P.1.x A Z f f a.).].].].].].].].",
"].].].].].].].]./.A./ r h x N 7.S.p.Y ].].].].].].].].].].].].].U B.S.$.z v h 7 / A./.].].].].].].].",
"].].].].].].].].s.u.T W V B J <.u.2.Y ].].].].].].].].].].].].].L 3.u.] p W V c _ u.E.].].].].].].].",
"].].].].].].].].s.u.0.0.i.s.u.7.i.2.L ].].].].].].].].].].].].].L 2.u.7.7.0.0.7.3.s.E.].].].].].].].",
"].].].].].].].].!.z.l.l.z.z.l.l.z.0.L ].].].].].].].].].].].].].L i.z.l.c.l.l.l.l.z.!.].].].].].].].",
"].].].].].].].].x.c.c.h.c.c.h.k.l.6.I ].].].].].].].].].].].].].L 8.c.c.c.c.c.c.h.c.Q.].].].].].].].",
"].].].].].].].].W.v.v.v.C.b.v.v.v.d.R ].].].].].].].].].].].].=.T d.v.l.v.^.C.b.v.v.!.].].].].].].].",
"].].].].].].].].A.J.A.A.A.J.J.A.A.C.$.%.].].].].].].].].].].].' ;.A.A.A.A.J.A.A.A.V./.].].].].].].].",
"].].].].].].].].!.v.Q.v.v.v.v.v.v.d.P ^ ].].].].].].].].].].].~ ( x.v.Q.v.v.v.v.v.v.Q.].].].].].].].",
"].].].].].].].].].].].].].].].].].].].].].].].].].].].].].].].].].].].].].].].].].].].].].].].].].].",
"].].].].].].].].].].].].].].].].].].].].].].].].].].].].].].].].].].].].].].].].].].].].].].].].].].",
"].].].].].].].].].].].].].].].].].].].].].].].].].].].].].].].].].].].].].].].].].].].].].].].].].].",
"].].].].].].].].].].].].].].].].].].].].].].].].].].].].].].].].].].].].].].].].].].].].].].].].].].",
"].].].].].].].].].].].].].].].].].].].].].].].].].].].].].].].].].].].].].].].].].].].].].].].].].].",
"].].].].].].].].].].].].].].].].].].].].].].].].].].].].].].].].].].].].].].].].].].].].].].].].].].",
"].].].].].].].].].].].].].].].].].].].].].].].].].].].].].].].].].].].].].].].].].].].].].].].].].]."
};
