/* XPM */
static char *fae912e2fd4f496b8c77a78a9020c88aAiEsp2RZQIPfXIfv[] = {
/* columns rows colors chars-per-pixel */
"64 64 231 2 ",
"   c None",
".  c #020101",
"X  c #0A0504",
"o  c #0D0806",
"O  c #030409",
"+  c #0F0A08",
"@  c #120905",
"#  c #140C0A",
"$  c #190E0A",
"%  c #190902",
"&  c #14130B",
"*  c #1C120C",
"=  c #1C190D",
"-  c #060919",
";  c #1D1312",
":  c #171714",
">  c #250A01",
",  c #380E01",
"<  c #22140E",
"1  c #2C1605",
"2  c #251611",
"3  c #291711",
"4  c #2C1913",
"5  c #2C1D18",
"6  c #251B14",
"7  c #341D16",
"8  c #321E1A",
"9  c #3B191A",
"0  c #341607",
"q  c #2B2517",
"w  c #35221D",
"e  c #3B231B",
"r  c #372519",
"t  c #39321C",
"y  c #040A25",
"u  c #080D28",
"i  c #0D1128",
"p  c #0D143C",
"a  c #0B1239",
"s  c #13163B",
"d  c #0B112D",
"f  c #2D1A26",
"g  c #371720",
"h  c #2C2C2D",
"j  c #3B2624",
"k  c #282739",
"l  c #382A3B",
"z  c #481A06",
"x  c #5C1704",
"c  c #441718",
"v  c #5D1C12",
"b  c #651A03",
"n  c #6B1C02",
"m  c #691F08",
"M  c #42261D",
"N  c #47291C",
"B  c #4C3012",
"V  c #6D2508",
"C  c #712305",
"Z  c #772D0A",
"A  c #7A340B",
"S  c #7C3C0C",
"D  c #632714",
"F  c #7A3E17",
"G  c #6F3018",
"H  c #452A23",
"J  c #4B2D25",
"K  c #472E2A",
"L  c #4D312A",
"P  c #493726",
"I  c #53342C",
"U  c #5B392D",
"Y  c #5B3626",
"T  c #483934",
"R  c #5D3B33",
"E  c #5A3C3B",
"W  c #553834",
"Q  c #4F282B",
"!  c #623A2F",
"~  c #723B22",
"^  c #613E35",
"/  c #7E441A",
"(  c #63421E",
")  c #4A432A",
"_  c #544C2A",
"`  c #574D29",
"'  c #5C522D",
"]  c #4A4531",
"[  c #5D5535",
"{  c #514B34",
"}  c #6B482E",
"|  c #644036",
" . c #654139",
".. c #6B453C",
"X. c #6E4839",
"o. c #645935",
"O. c #6C4A28",
"+. c #6B613A",
"@. c #71673F",
"#. c #131B4B",
"$. c #1A2247",
"%. c #1C265C",
"&. c #222442",
"*. c #2B324F",
"=. c #3B3C45",
"-. c #242B5A",
";. c #342B44",
":. c #222D66",
">. c #2A326A",
",. c #383967",
"<. c #2A3673",
"1. c #2D3975",
"2. c #253577",
"3. c #383D73",
"4. c #1D2E6A",
"5. c #433850",
"6. c #37457C",
"7. c #494747",
"8. c #524F49",
"9. c #5A444A",
"0. c #58574F",
"q. c #6C4941",
"w. c #6D4946",
"e. c #744B43",
"r. c #794F46",
"t. c #734F4F",
"y. c #695E42",
"u. c #7C5249",
"i. c #795344",
"p. c #795354",
"a. c #664D5D",
"s. c #6D6547",
"d. c #746944",
"f. c #7B6C43",
"g. c #766C49",
"h. c #7E734A",
"j. c #7C7147",
"k. c #696553",
"l. c #78725D",
"z. c #444975",
"x. c #676A77",
"c. c #73716B",
"v. c #82390C",
"b. c #873F15",
"n. c #87440E",
"m. c #8B4616",
"M. c #944D14",
"N. c #954E18",
"B. c #975115",
"V. c #9A561A",
"C. c #8B531E",
"Z. c #A15D1E",
"A. c #975725",
"S. c #925329",
"D. c #A15E26",
"F. c #926A3A",
"G. c #A46124",
"H. c #A8672A",
"J. c #AC743B",
"K. c #A7723D",
"L. c #B6793A",
"P. c #BA7D3D",
"I. c #B37437",
"U. c #AC6C32",
"Y. c #82554D",
"T. c #86584F",
"R. c #895A49",
"E. c #885950",
"W. c #81754B",
"Q. c #85794E",
"!. c #877345",
"~. c #877A54",
"^. c #93744E",
"/. c #AA7B4A",
"(. c #B37D45",
"). c #807C6A",
"_. c #8F805F",
"`. c #BC854A",
"'. c #BD8B53",
"]. c #A28051",
"[. c #8B866E",
"{. c #968C67",
"}. c #9F936C",
"|. c #9A9479",
" X c #8A8675",
".X c #A89B76",
"XX c #AFA37D",
"oX c #C58B4C",
"OX c #C48A49",
"+X c #C28C51",
"@X c #CD9555",
"#X c #CF9857",
"$X c #D29C5B",
"%X c #CA914F",
"&X c #D6A05F",
"*X c #C99F6A",
"=X c #DAA563",
"-X c #D9A869",
";X c #D2AA73",
":X c #E1AE6C",
">X c #E4B16D",
",X c #E6B572",
"<X c #E8B773",
"1X c #EAB975",
"2X c #E7B875",
"3X c #374783",
"4X c #4C5885",
"5X c #6E748B",
"6X c #7C839C",
"7X c #7F88A5",
"8X c #A49E86",
"9X c #ACA486",
"0X c #B5AD8B",
"qX c #B3AA84",
"wX c #BDB593",
"eX c #B3AC90",
"rX c #B5B2A4",
"tX c #C6B796",
"yX c #CEB88C",
"uX c #C9C19D",
"iX c #DCC49B",
"pX c #CDC5A4",
"aX c #CBC6AB",
"sX c #D4CCAB",
"dX c #D5C9A6",
"fX c #DCD4B4",
"gX c #D2CDB3",
"hX c #E3DBBA",
"jX c #E0DCC5",
"kX c #E7E2C8",
"lX c #EDEBD8",
/* pixels */
"                                              e U U K 7 7 7                                                                     ",
"                                              5 H $ @ @ $ $ e                                                                   ",
"                                              . 4 7 H I ..e.^                                                                   ",
"                                            . . 3 M H ^ r.Y.R H                                                                 ",
"                                          O . . 4 M J ^ r.Y.^ ^                                                                 ",
"                                  . . . O y O # e M R ^ r.E.r.^                                                                 ",
"                                . . . . O d y ; 9 M ^ ^ r.E.Y.E                                                                 ",
"                                  : . O O y a a s h E E w.p.a.%.                                                                ",
"                          wXpXhXjX8X; X X - a a s :.<.<.1.1.1.:.f M M                                                           ",
"                      tXfXfXsXuXfXaX~.T 7 7 j 9 j >.<.<.1.1.,.w.E R M M                                                         ",
"                    pXfXwXtXfXkXgXlXaX,.f M N M I E E E E t.p.T.X. .^ R                                                         ",
"                  tX0XtXJ.'.;XsXkXgXlX5Xa D n.U ! ! ^ ^ ..Y.T.T.T.Y.R.i.                                                        ",
"                hXuX}./.`.$X2XyXjXpXkX8X#.G D.m V G X.^ ..Y.r.u.u.E.-X2X=X@X                                                    ",
"              wXhXtXF.I.>X<X=XoXdXfXdX6X2.~ D.C v.L.+X} @ W 5 j J ^.$X<X1X<X$X@X                                                ",
"              uXsX].V.P.-X@XI.n.yXfXtX6X>.~ m.G.v.(.<X/.2 t ^.2 D I.OX%X-X1X1X:X@X                                              ",
"            9XdX0XF.H.oX$XOXD.b.tXpXyXx.:.~ Z B.M.D.$X<X'.'.-XS.V n.B.H.OXoX@X<X<X$X@X  R                                       ",
"            .XwX.XV.Z.#X<X<X&XoXiXpX9Xx.%.D n v.U.H.@X&XP.#X,X:X  n Z B.B.M.D.OX%X=X*XR.K 4 M                                   ",
"            0XqX_.Z.%X#X#X<X1X1X;XyXXX5Xs / v.A I.OXOXOX=XN.A.1X        C C M.V.B.J.} J * 7 L ^ r.                              ",
"          {.0X}.!.B.V.V.P.%X&X1X<X$X*Xk.s / Y c M.OX>X%XH.B.                    C n.N 3 $ < & W u.u.w I                         ",
"          {.qX{.f.( V S B.G.OX%X#X>X-X'.9.~ k 9 A Z.OX&X=X                          X 1 A.'.P & j j W  .8                       ",
"        ' {.}._.h.+.) z b Z M.V.L.oX#X:X;X/.q.5 % / G.+XI.                          . 1 V.P.=X].& X L j L #                     ",
"        _ Q._.W.h.@.o.t X @ 0 A m.B.V.L.=XR.W X < J | X.R.                                V.oX$XC.. X ; q.E 6                   ",
"      . = d.j.@.+.@.+.d.= q @.@.' G Z N.J.Y w * M U ..T.r.;                                   $X>X    . + w W                   ",
"      & X t +.' j.Q.+.' +.g.@.' f.y.k J m.N @ < J ..Y.u.w ; e.q.                              $X<X      . + H U                 ",
"      s.: O q [ h.j.j.' ` ' +.h.j.g.k.W.@.M 1 z < | i.K #  .E # W u.                            @X        6 2 8 e               ",
"    h.=.%.$.: & ) _ ' ` ' j.h.Q.=.&.] W.o.r > A / 0 * + W q.2 w e.j L U                                   X . X # 7             ",
"    h.&.d 4.x.l = ) ' j.j.h.h.h.g.y.] _       C C S B 7 w.j ..K J W L 2 7                                 . X * . *             ",
"    7.p w ;.x.8X[ _ q ` ' ) _ ' ' _               C x X # W  .j I 5 J < @ 3                               . * @ X . 3           ",
"    =.- 7 T 1. X+.t . [ g.& ] s.l.*.                    . $ L I 5 4 7 < 4 @ O                               . X * . <           ",
"    =.- # 5 $.6.).) .  X9X: X ) |.6.<.                      o o < 7 $ < o .   .                             .   . . X 4         ",
"    p 5 c W E ,.4X).- l.gXl.X k.rX3X>.                          . o < $ # . .                               .   .     X         ",
"  8.a h H R e.p.6.5Xk.[ dX[.O ).5X2.,.| ^                           . . . . .                                                   ",
"  8.y 2 M ^ e.T.p.6.&.{ pX[.. k.4X3.p.e.^ ^                           . . .                                                     ",
"  8.- X e R ^ u.E.9.s i eX[.O k.z.3.u.T.Y...^                             .                                                     ",
"  8.- . 7 J ^ r.E.t.l - |.9XO ) *.:.w.T.T.u...                                                                                  ",
"  8.- X 7 J ^ r.T.T.w.q |.9Xo X a k R e.Y.T.r.^                                                                                 ",
"  8.- X 7 H ^  .Y.T.e.R [.0Xq . i T ! ^ | Y.T.X. .                                                                              ",
"  8.h & @ N ^ ^ u.T.e.^ ~.0Xt . i j Q ^ ^ ..Y.Y...^                                                                             ",
"  8.h & X e I ^ ..T.r.^ W..X] . d 8 9 I W ^  .e.Y.....                                                                          ",
"  7.h = o 7 J ^  .Y.T...i..X] . u O # M J U R | r.T.e.                                                                          ",
"  p h P X & r I ..Y.T...q.[.) . u O . 5 U J L ^ r.u. .R                                                                         ",
"  p     . o 4 I ^ e.Y.e.E &.i . y O . X 8 ..X.^ ^ ^ I M                                                                         ",
"        X w U L U X.T.Y.E s y .     . . o 4 R I e e e 7                                                                         ",
"        . # w U ^ r.Y.Y.J     .     . * J L M 7 # . X                                                                           ",
"      . @ j 7 e M R ^ W ;     .     . * e M 3 . . . .                                                                           ",
"      . X @ . X + e e *           . . X # 4 X . . . .                                                                           ",
"      X 3 < . . . . X             . @ H e 4 . . . .                                                                             ",
"    . . # < . . . . .           . . o 4 $ . . . .                                                                               ",
"    . 2 4 X . . . . .           X 7 I J @ . . .                                                                                 ",
"    X 7 4 . . . . .           . X e M 7 + . . .                                                                                 ",
"    * 7 X . . . . .           . 4 L 4 X . . . .                                                                                 ",
"    < < X . . . .             < 4 e e # . . .                                                                                   ",
"    7 $ . . . . .             H 2 * < . . . .                                                                                   ",
"    2 7 o . . .             . 2 L H @ . . .                                                                                     ",
"  9 u 4 3 X . .             u - 7 7 4 @ . .                                                                                     ",
"  c #.i + 4 7             c $.:.i @ = * X                                                                                       ",
"> c p -.: * 2           n C Q >.#.v K.(.                                                                                        ",
"% b f ! J.`.            C n.v.v f b S.OXG.                                                                                      ",
"% b 9 ~ `.OXP.          V n.Z b b b m.H.Z.Z.Z.                                                                                  ",
"% b m Z V.Z.G.            @ , b n b C n.I.%X:X$X                                                                                ",
"  , Z U.`.@X>X$X              , x b Z M.I.@X1X=X                                                                                ",
"  > n N.OX$X1X$X              X % x V n.N.(.+X'.                                                                                ",
"  . , S /.`.+X`.                  X X % r Y X.Y                                                                                 ",
"    X @ < Y X.Y                                                                                                                 "
};
