/* XPM */
static char *_99ee4fd09734bbfb7cbb010fbe1eec8EoGpxMelQNyAGoI8[] = {
/* columns rows colors chars-per-pixel */
"64 64 126 2 ",
"   c #17171D",
".  c #1B171D",
"X  c #19181F",
"o  c #23171D",
"O  c #2B161C",
"+  c #23181F",
"@  c #2B191F",
"#  c #351419",
"$  c #3B151A",
"%  c #34191F",
"&  c #1C1B23",
"*  c #1E1F29",
"=  c #221E25",
"-  c #2C1B22",
";  c #241E29",
":  c #291E29",
">  c #341C24",
",  c #3C1D24",
"<  c #321F29",
"1  c #1F202B",
"2  c #212027",
"3  c #26252E",
"4  c #2A252E",
"5  c #33252D",
"6  c #3C232C",
"7  c #252730",
"8  c #292730",
"9  c #262832",
"0  c #2C2A33",
"q  c #2E2D38",
"w  c #3A2730",
"e  c #312C35",
"r  c #3B2B35",
"t  c #322D39",
"y  c #4E1116",
"u  c #4E171D",
"i  c #44181E",
"p  c #531115",
"a  c #6B0F13",
"s  c #7B0D10",
"d  c #67151D",
"f  c #68151D",
"g  c #6E191F",
"h  c #74161C",
"j  c #7B171D",
"k  c #73191E",
"l  c #7A181D",
"z  c #471B24",
"x  c #4D1E26",
"c  c #541E25",
"v  c #5B1D24",
"b  c #631B22",
"n  c #6A1B21",
"m  c #711D24",
"M  c #422027",
"N  c #4B2027",
"B  c #44222A",
"V  c #4B242D",
"C  c #51242D",
"Z  c #592129",
"A  c #442730",
"S  c #4B2730",
"D  c #442B35",
"F  c #4D2B35",
"G  c #502731",
"H  c #542C35",
"J  c #5A2C36",
"K  c #6E2027",
"L  c #682129",
"P  c #840C0F",
"I  c #8E1216",
"U  c #83161B",
"Y  c #81161C",
"T  c #891419",
"R  c #8B1519",
"E  c #8C1419",
"W  c #89181E",
"Q  c #931317",
"!  c #961216",
"~  c #981317",
"^  c #9B1216",
"/  c #9D1115",
"(  c #9D1418",
")  c #B10B0F",
"_  c #BD0C0E",
"`  c #AC0E12",
"'  c #AC0F12",
"]  c #B30D11",
"[  c #B10E11",
"{  c #B20E11",
"}  c #B80F12",
"|  c #A21115",
" . c #A51014",
".. c #AB1216",
"X. c #AB1317",
"o. c #A01418",
"O. c #8B1A20",
"+. c #CF0506",
"@. c #C20B0D",
"#. c #C30B0D",
"$. c #C40A0C",
"%. c #C70A0C",
"&. c #CC090B",
"*. c #CD090B",
"=. c #C80A0C",
"-. c #DE0607",
";. c #D70709",
":. c #D90708",
">. c #DA0608",
",. c #D30809",
"<. c #D0080A",
"1. c #D40809",
"2. c #D7090A",
"3. c #E30506",
"4. c #E70506",
"5. c #EF0303",
"6. c #ED0304",
"7. c #E90405",
"8. c #EB0404",
"9. c #EA0405",
"0. c #E40608",
"q. c #F40202",
"w. c #F60202",
"e. c #FA0101",
"r. c #FD0000",
"t. c red",
/* pixels */
"2 9 3 3 3 8 3 4 3 0 0 3 3 0 3   & 1 7 3 3 3 3 3 8 3 q 0 4 4 0 2   X 3 3 3 3 9 Z e.<.5 q 3 3 3 q & . * 2 8 3 3 3 8 3 3 0 0 8 9 3 ",
"1 9 3 3 3 3 3 9 8 0 0 3 3 0 2   & 1 3 3 8 9 8 3 3 8 B Z g v A 2   1 7 3 3 3 7 v 4.' b 0 0 3 8 0 & . & 3 3 3 8 3 8 3 3 0 0 3 3 3 ",
"2 3 3 8 9 4 3 3 9 3 3 3 3 9 = X X 1 3 3 3 8 3 3 8 6 Z 5 N 4 Z @   X 3 3 8 8 7 v $.g <.6 3 3 8 3 &   & 3 3 8 3 9 3 8 3 3 3 3 3 3 ",
"2 3 3 3 3 4 7 8 3 3 3 8 3 3 =   1 2 3 3 3 3 3 8 4 u 5 4 N 3 4 u   X 2 3 6 N 8 u $.b <.6 3 3 3 3 &   * 1 3 3 3 3 3 3 3 8 3 3 3 0 ",
"1 7 7 7 8 8 7 3 8 3 3 3 3 3 2 X & 1 1 3 3 3 3 8 5 M 3 4 B 4 3 , O & 1 1 U } 3 Z $.b &.6 9 3 3 3 X   & 1 3 3 3 3 3 3 3 8 8 3 8 3 ",
"7 7 7 7 7 3 4 3 3 3 8 3 3 8 2   X 7 3 3 7 8 3 3 M 5 3 4 B 8 3 - # * 7 7 d ~ g Q -.~ 4.j n 5 3 3 &   1 3 3 3 3 3 3 8 3 3 3 8 3 8 ",
"q q 7 ; 3 7 4 7 3 8 3 8 3 3 =   2 t 0 3 1 3 8 4 B 4 4 4 N 3 3 X O 2 q 0 1 f e.e.e.e.e.e.7.M 3 3 &   3 e 0 2 7 9 8 3 8 3 3 3 8 3 ",
"0 e 8 ; 4 3 7 4 3 3 3 8 3 3 *   2 q 0 3 3 3 4 4 B 3 3 8 B 3 3 1 # 4 q V N v 1.e.e.e.e.$.{ B 3 c O   3 q 0 2 7 9 8 3 3 3 8 3 8 3 ",
"8 q 8 0 8 8 3 8 8 3 3 3 3 8 1   1 4 0 9 e 8 4 4 b N N N d N N i y = 0 O...0 g e.e.e.7.B 3 3 4 @.y   2 0 0 0 q 3 3 3 3 8 3 8 7 3 ",
"8 0 8 0 3 3 8 3 3 3 8 3 8 3 2   X 8 0 8 8 8 8 4 v N N N n N N i p = 0 b ( Z N @.e.q./ 6 g 5 4 R $   3 0 8 0 8 8 3 8 8 3 8 3 3 3 ",
"8 3 3 3 8 3 3 8 8 3 3 3 3 3 1   1 3 3 8 8 8 3 4 B 3 3 8 B 3 3 & # = 9 7 Y _ 9 v e.,.4 B :.N 3 3 X   3 3 3 3 3 3 3 8 3 3 8 3 8 3 ",
"3 8 7 8 3 8 8 3 3 3 3 8 3 3 =   & 8 3 3 3 3 3 8 N 3 3 4 B 3 3 = # = 3 7 Y <.g Q 8...k j  .6 3 3 &   2 3 8 3 3 9 8 3 8 3 7 3 8 3 ",
"3 8 3 7 8 3 3 8 3 3 3 3 3 3 2 . & 8 3 3 8 3 3 9 B 4 2 3 N 8 3 = # 1 3 9 j e.e.e.&.b q.3.6 3 4 3 &   2 3 8 3 3 3 8 3 3 7 1 3 3 8 ",
"8 3 3 7 3 3 8 3 3 3 3 3 3 3 2   & 8 3 8 3 3 3 3 6 6 3 4 B 3 3 > # * 3 3 v  .| _ =.v 4.o.5 3 3 3 &   2 3 3 3 8 3 3 3 3 8 3 3 3 3 ",
"3 3 7 4 3 8 3 3 3 e 0 3 3 3 1   & 8 3 3 8 3 8 3 4 v e 5 N 3 4 u   2 3 8 8 3 7 v $.b 1.D 3 3 3 3 &   2 8 3 8 3 8 3 8 8 8 0 8 8 3 ",
"3 3 3 7 3 8 3 3 3 0 3 3 3 3 2   & 3 8 8 3 8 3 3 3 M C 0 M 0 N %   & 3 3 3 8 7 v ;.R ~ 6 0 3 3 3 &   1 8 3 8 3 3 3 3 8 8 0 3 8 3 ",
"8 3 8 3 3 3 8 3 3 3 8 8 3 3 *   & 3 3 3 3 3 8 3 7 4 c v n v N & . * 3 3 9 3 9 v e.1.5 8 3 3 3 3 X   2 7 3 8 3 3 3 8 3 3 7 3 3 8 ",
"3 3 3 3 8 3 8 3 8 3 3 3 3 8 =   & 3 8 3 8 3 8 3 4 3 9 6 z 6 3 &   = 8 8 4 9 7 z ~ Y 5 3 3 9 3 3 &   2 3 8 3 8 7 7 3 4 3 3 3 3 3 ",
"8 3 3 8 3 3 3 8 4 7 8 7 3 3 =   = 3 3 3 3 3 3 3 3 3 7 9 7 7 3 &   & 3 3 3 3 7 7 3 3 8 3 3 8 3 3 X   3 7 3 8 8 3 7 3 3 3 8 3 8 3 ",
"7 3 3 3 3 3 3 7 3 3 3 8 9 4 *   & 3 3 8 0 3 3 3 3 3 8 9 7 3 3 *   * 3 3 3 3 8 6 d 4 3 3 3 3 3 3 &   2 3 3 8 3 3 3 7 3 3 3 3 8 3 ",
"1 3 3 3 3 7 2 1 2 9 9 7 9 3 =   & 1 7 7 3 3 3 1 * 9 3 9 8 3 3 *   & 3 3 7 7 7 v $.: 3 3 9 9 3 3 X   & 7 7 7 3 3 3 1 1 3 3 8 8 8 ",
"1 1 3 1 3 2 1 1 * * 2 7 2 = &   & * 2 1 2 3 1 1 * * 2 2 2 2 2 .   & 2 & ; * ; , h ; 2 3 ; ; ; * X   & 1 7 2 1 3 1 1 1 1 3 2 1 7 ",
"  1 1 1 1 1 1 1 * * * * 1 &       & & * * * 1 1 * * * * 1 1 &       & 1 * * * * * * ; * * * *   X     & 1 1 1 1 1 1 1 1 1 1 1 1 ",
"    & & X X & X & & & & & &         & & & & & & & & & & & &           & & & & & & & & & & & &         X X X X & & X & &   & X   ",
"                                                                                                                                ",
"            . s $                                                                                                               ",
"  .         O +.p                 &                                                                                             ",
"& 3 3 3 3 4 4 L % 1 2 3 3 *       & 9 2 4 3 3 3 4 * & 4 3 3 &     & * 3 4 4 4 3 3 3 * * 4 4 3 &     X = 3 3 3 3 3 3 3 & 1 3 4 3 ",
"& e t t t t t q 2 1 0 t t 2       * t t t t t t 0 ; * q t q =       3 t 0 e t t e 0 2 ; e t e &       3 t t t t t t 0 * 2 t t t ",
"3 0 8 0 0 0 0 0 9 1 9 0 0 0 &   & 3 c W 0 0 0 0 0 9 ; 8 8 e 3 *   1 4 0 0 0 0 0 0 8 9 3 0 0 q 8 &   ; 8 0 0 0 0 0 9 0 3 2 9 9 t ",
"e 3 8 3 3 3 4 3 e 3 3 3 0 t 3   = 0 k $.4 8 3 3 8 e 3 3 8 e e 2   2 0 8 4 3 3 3 9 0 t 2 3 9 e e &   3 e 8 3 3 3 3 3 0 0 2 3 9 t ",
"3 3 6 ~ 5 5 | _ } C 3 3 0 0 3   & 3 6 v 8 3 3 6 ~ 6 8 8 3 8 e 2   1 3 3 d E 4 3 z { ..6 3 3 8 0 *   ; 3 3 3 8 3 3 9 3 0 0 8 8 0 ",
"1 3 N &.B 5 3.e.r.L 9 8 8 8 2   & 1 3 3 3 3 3 B ,.B 0 8 4 3 0 2   . = 9 U _ 3 3 v r.0.D 3 3 3 0 & . & 3 3 3 3 3 3 8 3 0 0 3 3 3 ",
"2 3 5 b 6 | q.e.~ ( Z 3 7 4 2   & 3 3 3 3 M I z :.} B 4 3 4 8 1 . & 3 3 B v 3 3 v 1.k 5 3 3 8 8 & X & 3 3 9 3 8 3 3 3 0 0 3 8 3 ",
"1 9 3 3 6 :.e.e.b #.k 3 8 7 1   & 1 8 3 9 N &.Z 4.q.N 4 4 3 4 &   & = 3 3 4 4 3 b =.5 3 3 3 3 3 &   & 3 3 3 3 3 8 3 8 8 8 3 3 8 ",
"1 2 3 3 3 b 7.e.<.l | v 4 8 1   & 1 2 3 3 c 7.1.4.k 6 | N 7 3 X   & 1 7 3 v $.~ u 7.` 6 3 8 3 3 & & & 1 3 3 4 9 3 3 3 3 3 3 8 3 ",
"1 1 9 9 3 5 :.e.w.v } l 9 3 1 . & 1 1 3 9 x 6.e.8.5 5 +.n 7 4 *   & * 3 3 n e.&.n q.3.6 3 3 3 3     1 * 2 9 3 3 8 3 3 3 3 3 8 3 ",
"0 0 6 ! M ^ l g n 6 } l 3 3 &   & 9 4 3 2 5 Y q.8.z 5 u  .N 3 &   = 0 8 1 d e.q.<.e.-.6 5 ! M 3 &   7 8 3 3 3 8 3 8 3 8 8 3 8 3 ",
"t q N $.N ,.Z 3 4 4 ) l 3 3 1   2 e 8 7 2 8 N q.7.N 5 5 _ d 3 &   2 t e 3 f e.e.e.e.-.6 6 &.z 3 &   3 t 0 3 2 8 8 3 3 3 8 3 3 3 ",
"0 0 5 C M :.,.$.Z ~ U | g 3 &   & q e 8 0 M =.e.e.<.&.=.j 5 8 &   2 0 0 9 m e.e.:.E +.6 3 x 5 3     2 q 8 8 9 8 8 3 8 3 3 3 8 3 ",
"8 0 0 w 6 &.q.e.b ) k { R 7 +   & 4 8 8 e v w.e.e.e.e.8.v 7 3 &   * 0 0 9 K 5.r.@.n 1.N 5 5 3 3 &   2 e 0 0 0 3 3 8 3 8 3 3 3 8 ",
"9 8 B { 6 B v 1.b 6 5 } R 7 1   2 4 3 3 Z :.e.e.e.q.k N 5 3 8 &   1 8 8 8 5 U <.m -.q.-.:.&.N 3 &   2 3 3 3 8 3 8 3 3 3 3 8 3 3 ",
"3 3 B =.B 3 6 &.n 3 5 { U 3 1   & 3 3 3 b e.e.e.e.q.z 7 3 3 3 &   1 3 3 3 9 n =.L q.r.r.r.4.N 3 &   2 3 4 8 3 3 3 8 7 3 3 3 3 8 ",
"8 3 4 z 6 ..c :.:.u Q U 5 3 2   & 4 3 3 v e.e.e.e.q.x 7 3 9 3 *   1 3 8 3 3 n 5.3.r.r.r.q.n 4 3 &   2 3 4 3 3 4 8 3 3 7 7 8 3 3 ",
"9 3 3 3 6 =.f :.5.u ) l 2 8 2   & 3 3 3 v e.e.q.e.3.z 3 3 8 8 &   + 3 3 4 8 b 7.e.e.5.5.1.B 3 3 &   = 4 3 4 3 3 3 3 3 7 2 3 3 8 ",
"3 3 3 3 6 :.5.q.k e } l 7 4 &   & 3 3 3 v e.-.n <.v e 8 3 3 3 &   1 3 4 3 8 5 k e.:.N S B 4 3 3 &   = 7 4 3 3 3 3 3 3 0 0 7 3 3 ",
"3 8 3 8 6 <.e.e.d e ..k 9 3 2 X & 3 3 9 v 5.&.N &.c e 0 5 4 4 =   = 4 4 5 5 8 c q.<.B q 8 8 4 3 &   2 8 3 3 4 3 3 3 3 0 0 8 3 8 ",
"3 3 3 3 3 c 4.e.-.Z 6 5 3 3 2 X & 8 3 8 4 z B B 3.:.x 4  .b 8 =   = 4 3 k  .0 5 k q.@.6 8 7 3 3 &   2 8 3 3 3 3 4 3 3 3 0 8 3 3 ",
"8 4 B 8 3 5 _ 4.-.v 3 3 3 3 2 . & 8 7 3 3 7 9 6 +.:.x 4 ` b 8 = . = 8 8 m ` 5 8 c :.$.6 3 8 8 3 &   & 8 3 4 3 3 3 3 3 4 3 8 3 8 ",
"3 N @.6 3 3 6 M M 3 3 3 3 3 1   & 3 4 9 3 4 3 4 6 B 5 4 B 5 8 = . : 5 8 , B 8 8 5 B V 5 4 4 4 4 &   2 9 3 9 3 8 3 3 3 8 3 3 3 3 ",
"8 z @.6 7 3 3 3 3 3 3 3 3 5 @   & 9 7 4 9 3 8 9 3 8 8 5 0 8 , - . : e 5 5 e 5 5 8 5 8 5 5 8 8 4 &   2 8 3 3 3 3 3 3 3 3 3 3 8 3 ",
"2 4 B 3 3 3 1 1 3 3 3 3 3 Q P   & ; 3 7 4 4 4 ; 3 4 5 8 5 5 ` a . = 5 5 5 5 e 5 : 4 5 8 5 5 5 4 &   2 3 4 3 3 3 3 1 2 3 8 8 3 3 ",
"2 4 3 3 3 3 * * 3 3 3 2 2 Q P   & ; 3 7 4 9 4 ; ; 4 4 5 8 5 ` a . = : 5 5 5 5 5 : ; 5 8 4 5 8 : +   2 2 4 3 3 3 2 1 1 2 3 3 3 3 ",
"& 1 1 1 1 1 * * 1 1 1 1 1 = o     & * ; ; ; ; ; ; : : : : : # o o o : : : : : : : 4 : : : : : = +   . & 2 2 1 1 1 1 1 1 1 1 1 1 ",
"  1 1 1 & * & * & 1 1 1 1 X       & * ; * ; : = ; = : = : : = o . o = - - : : : - : : : = : = =   . . & 1 1 1 1 1 & 1 1 1 1 1 1 ",
"        &   &                         .   & . = o = o = = o o o o o O = o = o o - = o = = o o . + X . + . X . .                 ",
"    X                             . . . . . o . . o . o o o o o o o o o o o o o o o o o o o . o o . o . . .                     ",
"              X                 . . . . . + . . o o o o o o + + O o o o O o = O O o o o o o o o . o . . . X X   X             X ",
"X X & X & X X & & & & & & &       . = = = = O - = + = O - - o O o o - < - - % @ - - O = = - - o o o . o + = = = & = X X & . & X ",
"& 0 e e e e e e 2 * 3 0 e 2       - r r D D D D D < > D H F > O O O , H H H H H H V < 5 F F D - o o . 6 r D r e e e 0 2 2 0 q e ",
"2 e e 0 e e e e 9 2 0 e e 3 & . . 4 D D D D D D F 6 5 D J H 6 - O > V J H J H H J F 6 6 F F F 6 o o = 6 r D r r r r e 2 3 q e e ",
"q 8 4 8 4 3 3 3 q 2 3 3 e r 4 . : r 5 5 w w A B V F 6 B D J J , O B H V C V V G V F H 6 V D H F - o 6 D 5 w e 5 4 4 e 0 1 3 0 t ",
"8 3 3 3 3 4 3 3 0 3 3 3 0 r 4 . : w w w w w w A A S D V V H J 6 O z G S G V G V V G G V D V C H > o 6 r w w 5 5 5 8 4 e 3 4 3 q ",
"2 3 4 3 3 3 3 3 3 q 0 8 7 6 : o = : 6 w w w w A A A J S S V J z - > V G C G C G G V G J D V D H > o - 6 w 6 w 5 e 5 5 e e 3 3 3 "
};
