/* XPM */
static char *_f346a93aeff47eac3cf5ad210e29244U09sXryFtI0c2cKE[] = {
/* columns rows colors chars-per-pixel */
"50 50 221 2 ",
"   c None",
".  c #010101",
"X  c #0A0504",
"o  c #0E0906",
"O  c #0D0B0A",
"+  c #04040C",
"@  c #110A07",
"#  c #140C09",
"$  c #1A0E0A",
"%  c #1C110D",
"&  c #1E1B0F",
"*  c #010413",
"=  c #060B1B",
"-  c #1D1B13",
";  c #1A1217",
":  c #140C10",
">  c #2C0B01",
",  c #240C02",
"<  c #22130E",
"1  c #27160A",
"2  c #331404",
"3  c #241613",
"4  c #291711",
"5  c #231D13",
"6  c #2C1A14",
"7  c #2E1D19",
"8  c #211618",
"9  c #331D15",
"0  c #381D15",
"q  c #351F1A",
"w  c #3B191C",
"e  c #3D0F01",
"r  c #282517",
"t  c #34211B",
"y  c #3B241D",
"u  c #352716",
"i  c #3C361E",
"p  c #080C27",
"a  c #191728",
"s  c #0A1239",
"d  c #0F1330",
"f  c #2D1D24",
"g  c #2D1F2B",
"h  c #261733",
"j  c #1D223B",
"k  c #3B2621",
"l  c #372E22",
"z  c #383320",
"x  c #3A3626",
"c  c #292C37",
"v  c #33283A",
"b  c #3A3A3E",
"n  c #2B2921",
"m  c #461302",
"M  c #5C1705",
"N  c #571A06",
"B  c #501B15",
"V  c #661902",
"C  c #4C2708",
"Z  c #5B2809",
"A  c #42271E",
"S  c #44291B",
"D  c #572918",
"F  c #4C351F",
"G  c #6A2707",
"H  c #762A06",
"J  c #7D3409",
"K  c #77330A",
"L  c #682B17",
"P  c #673A19",
"I  c #713411",
"U  c #401C23",
"Y  c #452A24",
"T  c #4A2D24",
"R  c #4A2E2A",
"E  c #422B27",
"W  c #562E26",
"Q  c #4D312A",
"!  c #4A3825",
"~  c #53342B",
"^  c #5B382A",
"/  c #4E2D39",
"(  c #46363C",
")  c #5D3B33",
"_  c #563835",
"`  c #623E35",
"'  c #623F38",
"]  c #673B2D",
"[  c #744214",
"{  c #4D4325",
"}  c #5A4628",
"|  c #5E542F",
" . c #474437",
".. c #5D5433",
"X. c #694728",
"o. c #744626",
"O. c #644037",
"+. c #654139",
"@. c #6B453C",
"#. c #6F483F",
"$. c #734B3A",
"%. c #655B35",
"&. c #665934",
"*. c #73563A",
"=. c #71552E",
"-. c #6D633C",
";. c #71663E",
":. c #141C46",
">. c #0E1940",
",. c #2D1F40",
"<. c #19214B",
"1. c #292841",
"2. c #353648",
"3. c #3B3657",
"4. c #2D294B",
"5. c #2A3365",
"6. c #313565",
"7. c #373A6C",
"8. c #373D73",
"9. c #252D61",
"0. c #443B59",
"q. c #3B4361",
"w. c #494844",
"e. c #5B5749",
"r. c #544A52",
"t. c #734B42",
"y. c #784E45",
"u. c #734D4A",
"i. c #675947",
"p. c #7E5249",
"a. c #7A5049",
"s. c #785353",
"d. c #664850",
"f. c #686148",
"g. c #7A6E45",
"h. c #72694B",
"j. c #786549",
"k. c #7F7349",
"l. c #6A6556",
"z. c #77715B",
"x. c #45486E",
"c. c #485173",
"v. c #6A6E78",
"b. c #80370A",
"n. c #8A4315",
"m. c #944D18",
"M. c #99531C",
"N. c #9E591B",
"B. c #98531A",
"V. c #884914",
"C. c #9D5823",
"Z. c #845937",
"A. c #904B21",
"S. c #A15E24",
"D. c #A15F33",
"F. c #966936",
"G. c #916135",
"H. c #AD6C2D",
"J. c #A66427",
"K. c #AB6C33",
"L. c #B37334",
"P. c #B97D3E",
"I. c #82554C",
"U. c #87584F",
"Y. c #855E40",
"T. c #84774C",
"R. c #887E59",
"E. c #926D44",
"W. c #B17C43",
"Q. c #A06F51",
"!. c #8C7F66",
"~. c #8C825C",
"^. c #BE8344",
"/. c #BB8349",
"(. c #B7844E",
"). c #BA8C5D",
"_. c #AD8555",
"`. c #9E936E",
"'. c #8F8971",
"]. c #9B947A",
"[. c #978A68",
"{. c #A79C76",
"}. c #B78960",
"|. c #A9A17F",
" X c #C38848",
".X c #CA904F",
"XX c #CE9959",
"oX c #CB9351",
"OX c #D29C5B",
"+X c #D09857",
"@X c #C58D54",
"#X c #D7A15E",
"$X c #C29A69",
"%X c #D7A362",
"&X c #D9A462",
"*X c #DDA966",
"=X c #DEAA69",
"-X c #C6A578",
";X c #DCB275",
":X c #E0AE6B",
">X c #E4B26E",
",X c #E8B672",
"<X c #364581",
"1X c #4E5B87",
"2X c #596285",
"3X c #656C84",
"4X c #8A8A87",
"5X c #A09A82",
"6X c #B4AB88",
"7X c #B5A986",
"8X c #BDB493",
"9X c #BEB698",
"0X c #C1B897",
"qX c #C8B38A",
"wX c #D2CAAA",
"eX c #D2C8A6",
"rX c #DAD3B3",
"tX c #D0CCB3",
"yX c #E5DDBD",
"uX c #DFDBC3",
"iX c #E2E0CD",
/* pixels */
"                                                    6 4 4 k R A                                     ",
"                                                    Y k 7 < 9 4                                     ",
"                                                    #.p.` A 0 X .                                   ",
"                                                  ) t.p.` Y t X . +                                 ",
"                                                  ] I.p.` ~ A 1 * * . . .                           ",
"                                                  0.s.I.' ^ f a s p . . +                           ",
"                                              A g 9.8.7.6.6.:.s s + X : ].yXeX0X                    ",
"                                            Y ~ ) d.8.7.7.6.2.w t 9 z !.rXwXwXrXwX                  ",
"                                            ' t.y.U.I.d.) ) ) Q D w 2.tXuXuXeX-X-XeX0X              ",
"                                          %X$XQ.I.I.p.t.` ] L L m.U c.iXrXrX;X.X/.{.0X              ",
"                                      +X:X,X>X(.^ k Q r $.W.B.H C.0.1XwXrX-XOX>X+XF.6XrX            ",
"                                    #X>X>X%X^.L.I ! E.S _.%XB.B.n._ 1X0XrXQ.S..X#XJ.E.eX6X          ",
"                            y O.).&X*X.XH.H.m.b.G @X:X X=X XS.m.H / x.7XeX).L.#X#XL.G.7X8X          ",
"                        @.Q 6 t *.W.S.N.b.J       =XD. XoX XP.b.J T q.|.qX>X,X,X#X XJ.[.6X{.        ",
"                  ~ E y.) 5 u 1 t J H                 H..X#XJ.D P F r.).*X,X:X XH.B.B.T.|.{.        ",
"                7 R _ 7 t *./.[ X                     .X+XL.I 0 0.Y.}.*X#X^.L.m.b.Z } T.`.{.        ",
"              3 ~ E % X F.%XH.                          E.o.0 # @.).#XH.J.V.G 2 1 { -.T.~.~.|       ",
"              Q 7 @     #X                            _ I.' T 1 y *.J.K P =.%.r z -.;.f.k.g.r       ",
"            ~ k X       &X                        _ _ 3 #.I.R 4 $ P o.b g.;.*.-.&.%.T.g.%.i X z     ",
"          6 $ # #                             _ +.3 ) E 6 R S Z 2 ! k.f.w.h.g.%.{ &.-.| r = j %.    ",
"          @ @ X                           0 t Q _ R Q +.7 C G H     -. .w.h.T.k.;.%.{ &  .5.:.0.R.  ",
"        $ X @ #                         < $ 9 y k E +.6 # G             ..%...{ &.i F f.'.q.8 c f.  ",
"        @ X O .                         X % < 9 7 k 7 .                 c.g.x - ~.r r z.q.4.4 p f.  ",
"      # . .                           . . o % % @ .                   5.2X'.O e.9Xr e.2X7.x 7 a 2.  ",
"                                        . X X o                     ' 0.q.4X- '.7X( 3Xx.u.] Y a 1.  ",
"                                        . . .                     O.#.s.8.3X; '.].c 7.s.p.' A # c   ",
"                                                                O.y.U.u.8.r.- 5Xl.d d.I.t.^ t . c   ",
"                                                              ' t.U.I.+.:.a O 5Xl.x p.U.#.Q 7 . c   ",
"                                                            ' #.I.t.+.) v * & 5Xp.O.U.a.' W 4 X c   ",
"                                                            @.p.y.+.) T f = r {.j.@.U.#.` T @ - 2.  ",
"                                                          #.a.@.) ^ T 6 ; * z `.*.t.I.+.) y o r  .  ",
"                                                        ` #.I.O.^ ~ y X * * u '.+.p.I.O.T < o z j   ",
"                                                        Y ^ ) ) @.R @ . * * = 1.+.I.t.) Y $ X   s   ",
"                                                        < < < A R 9 # .   . * a t.U.y.) ~ 9 X       ",
"                                                          . . # 9 T 7 .   . .   k t.@.R A 7 o       ",
"                                                          . . . @ 4 # X .       # q q @ X # o       ",
"                                                            . . X < q # .         . . . . # < .     ",
"                                                              . . . 7 q $         . . . . o < o     ",
"                                                              . . . 6 S 7 .         . . . . 4 1     ",
"                                                                . . X 7 A $ X         . . . @ 6 #   ",
"                                                                . . X 7 6 4 q         . . . X % q   ",
"                                                                  . . @ q A $         . . . X 6 3   ",
"                                                                  . X % y ; *           X X < 3 ;   ",
"                                                                    u S % <.9.B         4 3 O >.h m ",
"                                                                    ^.K.D ,.W J           } X.1.w > ",
"                                                                N.B.H.A.M M H b.           XP.W M > ",
"                                                              OX%X^.M.H V V m ,         H.H.S.H M , ",
"                                                              OX*X XN.H M e             =X%X^.C.N   ",
"                                                              Z.G.o.C 2 >               XXXXP.K ,   ",
"                                                                                        *.$.S , X   "
};
